<svg width="120" height="28" viewBox="0 0 120 28" fill="none" xmlns="http://www.w3.org/2000/svg">
<path d="M6.19934 13.3954C6.25924 13.9495 6.25924 14.4399 6.19934 14.8666C6.13944 15.2934 6.01965 15.7239 5.83996 16.1582C5.63032 16.4876 5.38324 16.7871 5.09873 17.0566C5.05381 17.1015 5.00889 17.1502 4.96397 17.2026C4.92653 17.2475 4.88909 17.2962 4.85166 17.3486C4.77679 17.446 4.68694 17.5358 4.58212 17.6182C4.50725 17.6781 4.39494 17.7417 4.2452 17.8091C4.13289 17.8615 4.03556 17.9401 3.9532 18.0449C3.89331 18.0599 3.83715 18.0786 3.78474 18.1011C3.73233 18.1235 3.67618 18.1497 3.61628 18.1797C3.46654 18.2171 3.35798 18.2508 3.29059 18.2808L3.07721 18.3818C3.00983 18.4118 2.94244 18.4193 2.87506 18.4043C2.82265 18.3893 2.75526 18.3893 2.6729 18.4043C2.60552 18.4118 2.54188 18.4417 2.48198 18.4942C2.42957 18.5391 2.36593 18.5765 2.29106 18.6065C2.14132 18.6514 2.00655 18.6439 1.88676 18.584C1.76696 18.5241 1.66214 18.4417 1.5723 18.3369C1.28779 18.2321 1.09686 18.1048 0.999532 17.9551C0.902199 17.8053 0.801123 17.6481 0.696303 17.4834C0.54656 17.3336 0.452971 17.1802 0.415536 17.0229C0.3781 16.8657 0.344408 16.6898 0.314459 16.4951C0.277024 16.263 0.243332 16.0309 0.213383 15.7988C0.183435 15.5667 0.15723 15.3346 0.134768 15.1025C0.119794 14.9677 0.119794 14.8255 0.134768 14.6757C0.149743 14.526 0.149743 14.3762 0.134768 14.2265C0.119794 14.0168 0.108563 13.7847 0.101076 13.5302C0.0935891 13.2756 0.112307 13.0585 0.15723 12.8788C0.194665 12.7216 0.232101 12.5943 0.269537 12.497C0.306972 12.3921 0.344408 12.2723 0.381844 12.1376C0.441741 11.9504 0.486663 11.7969 0.516612 11.6771C0.54656 11.5424 0.591483 11.4038 0.65138 11.2616C0.666354 11.2241 0.681329 11.1905 0.696303 11.1605C0.711277 11.1231 0.726251 11.0894 0.741226 11.0594C0.7562 11.0295 0.771174 10.9995 0.786148 10.9696C0.801123 10.9396 0.816097 10.9097 0.831071 10.8797C0.853533 10.8273 0.879737 10.7562 0.909686 10.6664C0.939635 10.5765 0.965839 10.5054 0.988301 10.453C1.01825 10.3332 1.06692 10.2134 1.1343 10.0936C1.1942 9.98129 1.24286 9.85401 1.2803 9.71175C1.31025 9.60693 1.33645 9.51708 1.35891 9.44221C1.38138 9.36734 1.43753 9.29247 1.52737 9.2176L1.69583 8.76837C1.72578 8.6935 1.75573 8.61863 1.78568 8.54376C1.81563 8.46889 1.84932 8.39402 1.88676 8.31914C1.92419 8.24427 1.95788 8.1694 1.98783 8.09453C2.01778 8.01966 2.04773 7.94479 2.07768 7.86992C2.10763 7.79505 2.13757 7.72017 2.16752 7.6453C2.19747 7.57043 2.23116 7.49556 2.2686 7.42069C2.40337 7.23351 2.48198 7.11746 2.50444 7.07254L2.58306 6.88162C2.62798 6.82172 2.66542 6.76931 2.69537 6.72439C2.72531 6.67946 2.74778 6.64203 2.76275 6.61208L3.30182 5.70239C3.39167 5.55265 3.48526 5.40291 3.58259 5.25317C3.67992 5.10342 3.781 4.95742 3.88582 4.81517C4.02059 4.62799 4.15536 4.44456 4.29012 4.26486C4.42489 4.07769 4.55592 3.89051 4.6832 3.70333C4.92279 3.35892 5.22602 3.00328 5.59288 2.63641C5.64529 2.54657 5.72017 2.44924 5.8175 2.34442C5.90734 2.2396 5.99719 2.12729 6.08703 2.0075C6.13944 1.95509 6.18811 1.90268 6.23303 1.85027C6.28544 1.79786 6.33411 1.74545 6.37903 1.69304C6.46139 1.60319 6.55872 1.51335 6.67103 1.4235C6.76836 1.34114 6.85072 1.27001 6.91811 1.21012C6.99298 1.15022 7.04913 1.10155 7.08657 1.06412C7.16892 0.981759 7.29246 0.936836 7.45718 0.929349C7.75666 0.914375 8.00374 0.99299 8.1984 1.16519C8.39307 1.3374 8.53533 1.55078 8.62517 1.80534C8.59522 2.06739 8.60271 2.32195 8.64763 2.56903C8.69256 2.81611 8.67758 3.04821 8.60271 3.26533C8.46794 3.5199 8.33692 3.78194 8.20964 4.05148C8.08235 4.32102 7.95882 4.59055 7.83902 4.86009C7.71923 5.13711 7.58446 5.39168 7.43472 5.62378C7.36733 5.7286 7.29995 5.83716 7.23257 5.94947C7.17267 6.06178 7.11277 6.17783 7.05287 6.29762C6.96303 6.46234 6.86195 6.61957 6.74965 6.76931C6.65231 6.89659 6.55872 7.06879 6.46888 7.28592C6.39401 7.36079 6.33411 7.44689 6.28919 7.54423C6.25175 7.62658 6.17688 7.71269 6.06457 7.80253C5.92232 8.11699 5.72017 8.39402 5.45812 8.6336L4.9415 9.64437C4.85915 9.80908 4.7693 9.97006 4.67197 10.1273C4.58212 10.2845 4.48479 10.438 4.37997 10.5877C4.3051 10.6027 4.2452 10.6402 4.20028 10.7001C4.15536 10.7599 4.11043 10.8273 4.06551 10.9022C3.94572 11.0519 3.82592 11.1979 3.70613 11.3402C3.58633 11.4825 3.45157 11.621 3.30182 11.7557C3.26439 11.8755 3.17829 11.9953 3.04352 12.1151C2.90126 12.2499 2.80767 12.3547 2.76275 12.4296C2.74029 12.4595 2.71408 12.5044 2.68414 12.5643C2.65419 12.6242 2.62798 12.6692 2.60552 12.6991C2.5606 12.774 2.51942 12.8264 2.48198 12.8563C2.44455 12.8863 2.40337 12.9312 2.35845 12.9911C2.31352 13.1109 2.27609 13.182 2.24614 13.2045C2.22368 13.2195 2.19373 13.2457 2.15629 13.2831C2.06645 13.4179 2.01404 13.4853 1.99906 13.4853C1.98409 13.4853 1.96911 13.4927 1.95414 13.5077C1.86429 13.6799 1.8044 13.7698 1.77445 13.7773C1.7445 13.7847 1.72204 13.8072 1.70707 13.8446C1.71455 14.0543 1.71455 14.1965 1.70707 14.2714C1.69958 14.3088 1.69209 14.3463 1.6846 14.3837C1.67712 14.4212 1.66963 14.4586 1.66214 14.496C1.69958 14.6308 1.71081 14.7843 1.69583 14.9565C1.68835 15.0388 1.6846 15.1249 1.6846 15.2148C1.69209 15.2971 1.69958 15.3795 1.70707 15.4619C1.72204 15.6266 1.74076 15.7801 1.76322 15.9223C1.78568 16.0646 1.81937 16.1956 1.86429 16.3154C1.90922 16.4502 1.99158 16.5662 2.11137 16.6635C2.23116 16.7609 2.37342 16.8021 2.53814 16.7871C2.59803 16.7721 2.68039 16.7422 2.78521 16.6972C2.89003 16.6523 2.97239 16.6149 3.03229 16.5849C3.06972 16.555 3.10716 16.5213 3.14459 16.4839C3.18203 16.4464 3.21946 16.4052 3.2569 16.3603C3.29434 16.3154 3.33177 16.2742 3.36921 16.2368C3.40664 16.1919 3.44408 16.1507 3.48151 16.1132C3.64623 15.9036 3.82592 15.649 4.02059 15.3496L4.5372 14.5409C4.57463 14.4212 4.60833 14.3201 4.63828 14.2377C4.66822 14.1554 4.69443 14.0917 4.71689 14.0468C4.75433 13.9719 4.79176 13.8671 4.8292 13.7323C4.86663 13.5601 4.87786 13.4029 4.86289 13.2606C4.8554 13.1259 4.88161 12.9911 4.9415 12.8563C4.97145 12.7665 5.04258 12.6504 5.15489 12.5082C5.26719 12.3659 5.36078 12.2574 5.43565 12.1825C5.57042 12.0627 5.65278 12.0066 5.68273 12.014C5.70519 12.0215 5.73514 12.0178 5.77258 12.0028C6.01965 11.9729 6.18437 11.9803 6.26673 12.0253C6.34908 12.0702 6.46888 12.0927 6.62611 12.0927C6.67103 12.0852 6.71595 12.0777 6.76088 12.0702C6.8058 12.0552 6.85447 12.044 6.90688 12.0365C6.99672 12.014 7.0978 12.0103 7.2101 12.0253C7.3299 12.0402 7.4422 12.0515 7.54702 12.059C7.65184 12.0665 7.76415 12.0552 7.88395 12.0253C8.07861 11.9803 8.3182 11.9579 8.60271 11.9579C8.64763 11.9579 8.6963 11.9579 8.74871 11.9579C8.80112 11.9579 8.85353 11.9616 8.90594 11.9691C9.01825 11.9766 9.1343 11.9654 9.25409 11.9354C9.38886 11.9205 9.52363 11.8868 9.65839 11.8344C9.79316 11.7819 9.92044 11.7707 10.0402 11.8007C10.1451 11.8156 10.2237 11.8755 10.2761 11.9803C10.3285 12.0852 10.3472 12.1975 10.3322 12.3173C10.3173 12.3921 10.2798 12.4857 10.2199 12.598C10.16 12.7103 10.1001 12.774 10.0402 12.789C9.92044 12.759 9.85306 12.7515 9.83809 12.7665C9.82311 12.7815 9.80065 12.789 9.7707 12.789C9.68086 12.7815 9.58727 12.7553 9.48993 12.7103L9.23163 12.6093C9.02199 12.5793 8.81609 12.5868 8.61394 12.6317C8.41179 12.6767 8.21338 12.7291 8.01871 12.789L7.73795 12.89C7.68554 12.905 7.63313 12.9237 7.58072 12.9462C7.53579 12.9612 7.48713 12.9761 7.43472 12.9911C7.37482 13.0061 7.32615 13.0136 7.28872 13.0136C7.22882 13.0136 7.18016 13.0285 7.14272 13.0585C7.04539 13.0884 6.9518 13.1109 6.86195 13.1259C6.77959 13.1409 6.69349 13.1633 6.60365 13.1933C6.48385 13.2232 6.41647 13.2569 6.40149 13.2943C6.39401 13.3243 6.32662 13.358 6.19934 13.3954ZM5.00889 5.78101C4.66448 6.30511 4.3313 6.84044 4.00936 7.387C3.68741 7.93356 3.36921 8.50632 3.05475 9.10529C3.00983 9.19514 2.96865 9.28873 2.93121 9.38606C2.89377 9.48339 2.8526 9.59196 2.80767 9.71175C2.7328 9.8016 2.66916 9.92513 2.61675 10.0824C2.56434 10.2396 2.51567 10.3856 2.47075 10.5204C2.43332 10.6177 2.39588 10.715 2.35845 10.8124C2.32101 10.9022 2.28357 10.9958 2.24614 11.0931C2.17127 11.2803 2.14881 11.4563 2.17875 11.621C2.35096 11.5012 2.5007 11.3327 2.62798 11.1156L2.98736 10.4754C3.07721 10.3856 3.14459 10.2995 3.18952 10.2171C3.24193 10.1273 3.30931 10.0337 3.39167 9.93636C3.47403 9.84652 3.54141 9.75667 3.59382 9.66683C3.64623 9.58447 3.71362 9.50211 3.79597 9.41975C4.00561 9.12027 4.18905 8.79832 4.34628 8.45391C4.42864 8.28171 4.51099 8.1095 4.59335 7.9373C4.6832 7.7651 4.77679 7.59289 4.87412 7.42069C4.95648 7.26346 5.05007 7.09874 5.15489 6.92654C5.23725 6.78428 5.32335 6.61957 5.41319 6.43239L5.64904 5.87085C5.68647 5.78101 5.72391 5.69116 5.76134 5.60132C5.79878 5.50398 5.83247 5.40665 5.86242 5.30932C5.90734 5.07722 5.9635 4.92373 6.03088 4.84886C6.10575 4.7665 6.14693 4.66543 6.15442 4.54563C5.93729 4.71784 5.73514 4.91624 5.54796 5.14086L5.00889 5.78101ZM9.45624 16.2256C9.5985 16.2555 9.73327 16.2181 9.86055 16.1132C9.99532 16.0009 10.1226 15.9111 10.2424 15.8437C10.3023 15.7688 10.3734 15.6902 10.4558 15.6079C10.5381 15.5255 10.6242 15.4544 10.7141 15.3945C10.8189 15.2597 10.9275 15.1287 11.0398 15.0014C11.1596 14.8741 11.2831 14.7506 11.4104 14.6308C11.4703 14.5559 11.5302 14.4848 11.5901 14.4174C11.65 14.3425 11.7099 14.2714 11.7698 14.204C11.8297 14.1366 11.8896 14.0693 11.9495 14.0019C12.0094 13.927 12.0692 13.8521 12.1291 13.7773C12.189 13.6949 12.2489 13.5976 12.3088 13.4853C12.3313 13.4403 12.3538 13.3954 12.3762 13.3505C12.4062 13.3056 12.4361 13.2606 12.4661 13.2157C12.5484 13.081 12.6345 12.9612 12.7244 12.8563C12.8217 12.7365 12.8928 12.5943 12.9378 12.4296C12.9977 12.3322 13.0763 12.2574 13.1736 12.205C13.2709 12.1526 13.3495 12.0777 13.4094 11.9803C13.4469 11.9354 13.4843 11.868 13.5218 11.7782C13.5517 11.7033 13.5966 11.6434 13.6565 11.5985C13.7164 11.5536 13.7501 11.5161 13.7576 11.4862C13.7726 11.4488 13.7913 11.4188 13.8138 11.3964C13.8587 11.314 13.9148 11.2466 13.9822 11.1942C14.0571 11.1268 14.1207 11.0594 14.1731 10.992C14.3603 10.8423 14.4951 10.7263 14.5774 10.6439C14.6598 10.5615 14.7721 10.4754 14.9144 10.3856C15.1839 10.2957 15.4572 10.2658 15.7342 10.2957C16.0112 10.3257 16.2096 10.423 16.3294 10.5877C16.3369 10.6851 16.3481 10.7824 16.3631 10.8797C16.3781 10.9696 16.3931 11.0557 16.408 11.138C16.4455 11.3177 16.4193 11.5386 16.3294 11.8007C16.2695 11.9504 16.1947 12.1001 16.1048 12.2499C16.0225 12.3847 15.9551 12.5344 15.9027 12.6991L15.8128 12.8339C15.7679 12.8938 15.7379 12.9312 15.723 12.9462C15.5807 13.3505 15.4235 13.7436 15.2513 14.1254C15.1689 14.3126 15.0866 14.5035 15.0042 14.6982C14.9218 14.8928 14.8395 15.0875 14.7571 15.2822C15.1539 15.0875 15.4385 14.9303 15.6107 14.8105C15.708 14.7431 15.8091 14.6795 15.9139 14.6196C16.0187 14.5522 16.1273 14.4885 16.2396 14.4286L16.6439 14.1591C16.7113 14.1142 16.7787 14.0693 16.846 14.0243C16.9209 13.9794 16.9958 13.9345 17.0707 13.8896C17.1904 13.7398 17.3252 13.6163 17.475 13.519C17.6247 13.4216 17.7819 13.3205 17.9466 13.2157C18.0515 13.1109 18.1563 13.0248 18.2611 12.9574C18.3659 12.89 18.4782 12.8189 18.598 12.744C18.6355 12.7141 18.6729 12.6841 18.7103 12.6542C18.7478 12.6242 18.7815 12.5943 18.8114 12.5643C18.9013 12.4895 18.9724 12.4371 19.0248 12.4071L19.1933 12.2274C19.2681 12.1526 19.3318 12.1001 19.3842 12.0702C19.5189 12.0178 19.6537 11.9504 19.7885 11.868C19.8633 11.8231 19.9195 11.7857 19.9569 11.7557C20.0093 11.7108 20.073 11.6734 20.1479 11.6434L20.3051 11.43C20.365 11.3402 20.4473 11.314 20.5522 11.3514C20.5896 11.3065 20.6458 11.284 20.7206 11.284C20.8105 11.284 20.8741 11.299 20.9115 11.329C20.9115 11.3814 20.9228 11.4263 20.9452 11.4637C20.9677 11.5012 20.964 11.5536 20.934 11.621C20.8591 11.6734 20.7918 11.7295 20.7319 11.7894C20.6869 11.8344 20.6121 11.8755 20.5072 11.913C20.3201 12.1151 20.1516 12.2649 20.0019 12.3622C19.8596 12.452 19.7436 12.5793 19.6537 12.744C19.3991 12.9986 19.1371 13.2532 18.8676 13.5077C18.598 13.7623 18.3285 14.0094 18.059 14.2489C17.9766 14.2489 17.8942 14.2789 17.8119 14.3388C17.7295 14.3987 17.6546 14.4137 17.5873 14.3837C17.4974 14.3463 17.4225 14.4062 17.3626 14.5634C16.9733 14.9752 16.5391 15.3421 16.0599 15.664C15.7679 15.971 15.431 16.2443 15.0491 16.4839C14.6598 16.7309 14.3229 16.9967 14.0384 17.2812C14.0084 17.5732 13.9298 17.8615 13.8025 18.146C13.6752 18.4305 13.5742 18.7038 13.4993 18.9658C13.4394 19.0931 13.387 19.2129 13.3421 19.3252C13.3046 19.4375 13.2709 19.5423 13.241 19.6397C13.1811 19.8418 13.1025 20.029 13.0051 20.2012C12.9602 20.4558 12.8853 20.6916 12.7805 20.9087C12.6757 21.1259 12.5634 21.3393 12.4436 21.5489C12.4062 21.7286 12.3313 21.8858 12.219 22.0206C12.1142 22.1479 12.0168 22.3126 11.927 22.5147C11.8896 22.5971 11.8521 22.6682 11.8147 22.7281C11.7773 22.788 11.7398 22.8591 11.7024 22.9415C11.6575 23.0164 11.62 23.0912 11.5901 23.1661C11.5601 23.241 11.5227 23.3159 11.4778 23.3907L11.3879 23.4918C11.3729 23.5068 11.358 23.5218 11.343 23.5367C11.328 23.5592 11.313 23.5779 11.2981 23.5929L11.0285 24.0646C10.9013 24.3341 10.7478 24.5475 10.5681 24.7047C10.4707 24.7871 10.3734 24.8769 10.2761 24.9743C10.1787 25.0716 10.0777 25.1727 9.97285 25.2775C9.90547 25.3449 9.84183 25.4197 9.78193 25.5021C9.72952 25.577 9.66588 25.6518 9.59101 25.7267C9.49368 25.824 9.41881 25.8952 9.3664 25.9401C9.32896 25.97 9.29153 26.0037 9.25409 26.0412C9.21665 26.0861 9.17922 26.131 9.14178 26.1759C9.02199 26.2209 8.92466 26.292 8.84978 26.3893C8.77491 26.4867 8.70004 26.5877 8.62517 26.6926C8.5503 26.7375 8.50163 26.7712 8.47917 26.7936C8.45671 26.8161 8.40804 26.8498 8.33317 26.8947C8.22835 26.9321 8.15348 26.9658 8.10856 26.9958C8.05615 27.0332 8.0262 27.0519 8.01871 27.0519C7.92138 27.1043 7.80907 27.138 7.68179 27.153C7.55451 27.168 7.44969 27.2092 7.36733 27.2766C7.21759 27.2766 7.10903 27.2466 7.04164 27.1867C6.97426 27.1268 6.91062 27.0594 6.85072 26.9846C6.7459 26.7899 6.71221 26.5877 6.74965 26.3781C6.77959 26.1685 6.82826 25.9476 6.89564 25.7155C6.96303 25.4834 6.98549 25.2401 6.96303 24.9855C7.04539 24.7459 7.09031 24.5437 7.0978 24.379C7.10528 24.2293 7.13523 24.0795 7.18764 23.9298C7.29995 23.7426 7.35985 23.6228 7.36733 23.5704C7.37482 23.503 7.41974 23.4506 7.5021 23.4132C7.51708 23.3159 7.53954 23.241 7.56949 23.1886C7.60692 23.1287 7.62938 23.0613 7.63687 22.9864C7.68179 22.9565 7.71923 22.919 7.74918 22.8741C7.77913 22.8367 7.82405 22.7992 7.88395 22.7618C7.95882 22.6121 8.0262 22.4736 8.0861 22.3463C8.14599 22.219 8.19466 22.1029 8.2321 21.9981C8.26953 21.8933 8.31071 21.7885 8.35563 21.6837C8.40804 21.5788 8.46045 21.474 8.51286 21.3692C8.53533 21.3093 8.55404 21.2494 8.56902 21.1895C8.59148 21.1371 8.6102 21.0847 8.62517 21.0323C8.64015 20.9799 8.65512 20.9275 8.67009 20.8751C8.69256 20.8301 8.71502 20.7852 8.73748 20.7403C8.80486 20.5905 8.90594 20.4258 9.04071 20.2461L9.41132 19.752C9.46373 19.6846 9.50865 19.6247 9.54609 19.5723C9.58352 19.5274 9.60973 19.4899 9.6247 19.46C9.66963 19.3851 9.70332 19.3327 9.72578 19.3028C9.85306 19.2129 9.90921 19.1568 9.89424 19.1343C9.88675 19.1118 9.8905 19.1006 9.90547 19.1006C10.1076 18.8985 10.3023 18.7188 10.4895 18.5615C10.5793 18.4567 10.6692 18.3594 10.759 18.2695C10.8488 18.1797 10.9537 18.0973 11.0735 18.0225C11.1633 17.9176 11.2532 17.8203 11.343 17.7305C11.4328 17.6406 11.5377 17.5583 11.6575 17.4834C11.7773 17.401 11.8896 17.3149 11.9944 17.2251C12.1067 17.1277 12.2115 17.0304 12.3088 16.9331C12.4062 16.8283 12.5072 16.7309 12.6121 16.6411C12.7169 16.5512 12.8254 16.4651 12.9378 16.3828C12.9752 16.1582 13.0276 15.971 13.095 15.8212C13.1624 15.679 13.2148 15.4993 13.2522 15.2822C13.3121 15.1774 13.3645 15.0576 13.4094 14.9228C13.4544 14.788 13.4918 14.6607 13.5218 14.5409C13.5667 14.496 13.6004 14.4361 13.6228 14.3613C13.6528 14.2564 13.679 14.1741 13.7014 14.1142C13.7763 13.9719 13.8138 13.8446 13.8138 13.7323C13.8287 13.6125 13.8362 13.5339 13.8362 13.4965C13.8362 13.4216 13.8512 13.343 13.8811 13.2606C13.8961 13.1558 13.9036 13.051 13.9036 12.9462C13.7763 13.0585 13.6827 13.1633 13.6228 13.2606C13.548 13.3804 13.4693 13.4927 13.387 13.5976C13.357 13.6275 13.3233 13.6612 13.2859 13.6986C13.2485 13.7361 13.2223 13.7922 13.2073 13.8671C13.1174 13.9644 13.065 14.0168 13.0501 14.0243C13.0201 14.0318 13.0051 14.0543 13.0051 14.0917C12.8329 14.2864 12.6607 14.4848 12.4885 14.6869C12.3238 14.8816 12.1554 15.0838 11.9831 15.2934C11.8184 15.503 11.65 15.7089 11.4778 15.9111C11.3056 16.1058 11.1334 16.3004 10.9612 16.4951C10.8264 16.6149 10.6841 16.7309 10.5344 16.8432C10.3846 16.9555 10.2274 17.0716 10.0627 17.1914C10.0028 17.2363 9.93542 17.2887 9.86055 17.3486C9.79316 17.401 9.71829 17.4572 9.63593 17.5171C9.46373 17.6444 9.26158 17.6706 9.02948 17.5957C8.68507 17.7305 8.4043 17.7043 8.18717 17.5171C7.97005 17.3299 7.80159 17.124 7.68179 16.8994C7.6219 16.8095 7.57323 16.7309 7.53579 16.6635C7.49836 16.5962 7.48713 16.4801 7.5021 16.3154C7.51708 16.233 7.53579 16.1507 7.55826 16.0683C7.57323 15.9785 7.59195 15.8924 7.61441 15.81C7.63687 15.7277 7.65933 15.6378 7.68179 15.5405C7.69677 15.4431 7.71174 15.3421 7.72672 15.2372C7.74169 15.1549 7.75666 15.0725 7.77164 14.9902C7.78661 14.9078 7.79784 14.8255 7.80533 14.7431C7.82779 14.5859 7.86148 14.4137 7.90641 14.2265C7.95133 14.0168 8.01123 13.8147 8.0861 13.62C8.16097 13.4254 8.25081 13.2606 8.35563 13.1259C8.39307 13.0136 8.43051 12.905 8.46794 12.8002C8.50538 12.6879 8.53907 12.5831 8.56902 12.4857C8.60645 12.3809 8.64015 12.2798 8.67009 12.1825C8.70753 12.0777 8.74497 11.9729 8.7824 11.868C8.85727 11.6285 8.94712 11.3964 9.05194 11.1717C9.15676 10.9471 9.26906 10.73 9.38886 10.5204C9.46373 10.4155 9.53486 10.322 9.60224 10.2396C9.66963 10.1572 9.74075 10.0711 9.81562 9.98129C9.96537 9.96631 10.0852 9.94011 10.175 9.90267C10.2649 9.86524 10.3547 9.82406 10.4445 9.77913C10.497 9.76416 10.5494 9.74919 10.6018 9.73421C10.6542 9.71924 10.7066 9.70801 10.759 9.70052C10.8114 9.68554 10.8601 9.67431 10.905 9.66683C10.9574 9.65185 11.0061 9.63688 11.051 9.6219C11.2157 9.54703 11.3205 9.51334 11.3655 9.52083C11.4029 9.52832 11.4403 9.5096 11.4778 9.46467C11.5077 9.53955 11.5526 9.58821 11.6125 9.61067C11.6799 9.63313 11.7174 9.6818 11.7248 9.75667C11.7248 9.86149 11.6837 9.98877 11.6013 10.1385C11.5264 10.2808 11.4703 10.3931 11.4328 10.4754C11.4029 10.5278 11.3729 10.584 11.343 10.6439C11.313 10.7038 11.2831 10.7674 11.2532 10.8348C11.1933 10.9771 11.1259 11.0969 11.051 11.1942C11.036 11.2616 11.0173 11.329 10.9948 11.3964C10.9799 11.4637 10.9574 11.5274 10.9275 11.5873C10.8975 11.6472 10.8713 11.7108 10.8488 11.7782C10.8264 11.8456 10.8039 11.913 10.7815 11.9803C10.6317 12.1451 10.5007 12.3322 10.3884 12.5419C10.2761 12.7515 10.16 12.9761 10.0402 13.2157C10.0103 13.2906 9.9766 13.358 9.93916 13.4179C9.90921 13.4703 9.87552 13.5377 9.83809 13.62C9.82311 13.6874 9.80814 13.7548 9.79316 13.8222C9.78568 13.8896 9.77445 13.957 9.75947 14.0243C9.75198 14.0917 9.74075 14.1591 9.72578 14.2265C9.7108 14.2939 9.69583 14.3613 9.68086 14.4286C9.62096 14.5859 9.57604 14.7581 9.54609 14.9453C9.51614 15.1549 9.49368 15.3645 9.4787 15.5742C9.46373 15.7838 9.45624 16.0009 9.45624 16.2256ZM12.6682 18.1572H12.6458C12.3538 18.3444 12.0917 18.5578 11.8596 18.7974C11.7473 18.9172 11.6313 19.0332 11.5115 19.1455C11.3992 19.2653 11.2831 19.3851 11.1633 19.5049C11.1109 19.5648 11.0585 19.621 11.0061 19.6734C10.9537 19.7333 10.9013 19.7932 10.8488 19.8531C10.7365 19.9803 10.6392 20.1039 10.5568 20.2237C10.482 20.3584 10.4034 20.497 10.321 20.6392C10.2386 20.7815 10.1376 20.9125 10.0178 21.0323C9.8306 21.2045 9.71829 21.3355 9.68086 21.4254C9.65839 21.4778 9.63593 21.5227 9.61347 21.5601C9.59101 21.6051 9.56855 21.6462 9.54609 21.6837L9.37763 22.0318C9.34768 22.0842 9.31773 22.1366 9.28778 22.189C9.25783 22.2489 9.22414 22.3051 9.18671 22.3575C9.11932 22.4848 9.05194 22.6345 8.98455 22.8067C8.91717 22.9789 8.84978 23.1287 8.7824 23.256C8.67758 23.5255 8.59522 23.7838 8.53533 24.0309C8.47543 24.278 8.45297 24.5288 8.46794 24.7833V24.9518C8.46794 24.9967 8.4904 25.0379 8.53533 25.0753C8.60271 25.0753 8.71502 25.0454 8.87225 24.9855C8.99204 24.8807 9.10809 24.7759 9.2204 24.671C9.3327 24.5662 9.44127 24.4539 9.54609 24.3341C9.75573 24.0945 9.98034 23.8549 10.2199 23.6153C10.4296 23.3758 10.6167 23.1175 10.7815 22.8404C10.9462 22.5634 11.0884 22.2527 11.2082 21.9083C11.2532 21.8259 11.2943 21.7398 11.3318 21.65C11.3692 21.5676 11.4029 21.4778 11.4328 21.3804C11.4853 21.2007 11.5601 21.0323 11.6575 20.8751C11.7398 20.6355 11.8222 20.3996 11.9045 20.1675C11.9944 19.9354 12.0842 19.7108 12.1741 19.4937C12.3687 19.0295 12.5335 18.584 12.6682 18.1572ZM29.3346 12.9462C29.4618 12.8563 29.5929 12.759 29.7276 12.6542C29.7875 12.6018 29.8512 12.5494 29.9186 12.497C29.9859 12.4446 30.0533 12.3921 30.1207 12.3397C30.2779 12.2125 30.4352 12.0852 30.5924 11.9579C30.7571 11.8306 30.9218 11.7071 31.0866 11.5873C31.2513 11.46 31.4122 11.3365 31.5695 11.2167C31.7342 11.0894 31.8952 10.9621 32.0524 10.8348C32.1123 10.7599 32.1797 10.7001 32.2545 10.6551C32.4118 10.5728 32.4979 10.5166 32.5129 10.4867C32.5278 10.4567 32.5465 10.438 32.569 10.4305C32.6214 10.4006 32.6925 10.3968 32.7824 10.4193C32.8647 10.4417 32.9434 10.438 33.0182 10.4081C33.2129 10.3631 33.4151 10.3631 33.6247 10.4081C33.8343 10.453 33.9691 10.4904 34.029 10.5204C34.0664 10.5054 34.1001 10.4942 34.1301 10.4867C34.1675 10.4792 34.2012 10.4717 34.2311 10.4642L34.4108 10.4305C34.5306 10.4305 34.6167 10.453 34.6691 10.4979C34.7216 10.5428 34.7702 10.5877 34.8151 10.6327C34.8151 10.6926 34.8189 10.7412 34.8264 10.7787C34.8413 10.8311 34.8301 10.8872 34.7927 10.9471C34.6429 11.0819 34.4857 11.2129 34.321 11.3402C34.1563 11.4675 33.9691 11.576 33.7595 11.6659C33.5274 11.7932 33.3739 11.8942 33.299 11.9691C33.2241 12.044 33.1231 12.1001 32.9958 12.1376C32.7861 12.2274 32.5877 12.3435 32.4005 12.4857C32.2358 12.6055 32.0449 12.7291 31.8278 12.8563C31.708 12.9462 31.5844 13.0323 31.4572 13.1146C31.3299 13.197 31.2026 13.2794 31.0753 13.3617C30.8058 13.5264 30.555 13.7024 30.3229 13.8896C30.2405 13.942 30.1769 13.9906 30.1319 14.0356C30.1095 14.058 30.0683 14.0917 30.0084 14.1366C30.0234 14.2489 30.0458 14.3425 30.0758 14.4174C30.1057 14.4848 30.1207 14.5859 30.1207 14.7206C30.1432 14.7506 30.1694 14.803 30.1993 14.8779C30.2143 14.9078 30.2255 14.9378 30.233 14.9677C30.248 14.9977 30.263 15.0276 30.2779 15.0576C30.3154 15.1249 30.3491 15.1923 30.379 15.2597C30.409 15.3271 30.4389 15.3907 30.4689 15.4506C30.4988 15.5105 30.5288 15.5742 30.5587 15.6416C30.5961 15.7089 30.6373 15.7763 30.6822 15.8437L30.8507 16.1132C30.9106 16.2031 30.9817 16.2705 31.0641 16.3154C31.1015 16.3903 31.1352 16.4464 31.1652 16.4839C31.2026 16.5138 31.2363 16.57 31.2662 16.6523C31.3636 16.817 31.5283 16.862 31.7604 16.7871C31.9925 16.7047 32.2021 16.6149 32.3893 16.5175C32.5391 16.5026 32.6551 16.4614 32.7375 16.394C32.8198 16.3266 32.9059 16.2555 32.9958 16.1806C33.0332 16.1507 33.0706 16.1245 33.1081 16.102C33.153 16.0721 33.1942 16.0459 33.2316 16.0234C33.3215 15.971 33.4001 15.9111 33.4675 15.8437C33.6172 15.7389 33.7669 15.6378 33.9167 15.5405C34.0664 15.4431 34.2237 15.357 34.3884 15.2822C34.4782 15.1624 34.5643 15.0763 34.6467 15.0239C34.7515 14.9565 34.8451 14.8854 34.9275 14.8105C35.0622 14.7206 35.167 14.6383 35.2419 14.5634C35.3168 14.4885 35.4141 14.4137 35.5339 14.3388C35.6088 14.2639 35.6837 14.1965 35.7585 14.1366C35.8334 14.0767 35.8933 14.0243 35.9382 13.9794C36.043 13.9345 36.1366 13.8858 36.219 13.8334C36.3013 13.781 36.3725 13.7024 36.4324 13.5976C36.5072 13.5976 36.5709 13.5714 36.6233 13.519C36.6832 13.4591 36.7468 13.4254 36.8142 13.4179C36.8442 13.5526 36.8442 13.6612 36.8142 13.7436C36.7843 13.8259 36.7468 13.8971 36.7019 13.957C36.6121 14.0468 36.5222 14.1292 36.4324 14.204C36.3425 14.2789 36.2377 14.3463 36.1179 14.4062C36.0954 14.4286 36.0618 14.4548 36.0168 14.4848C35.9719 14.5147 35.9382 14.5409 35.9158 14.5634C35.8933 14.5859 35.8596 14.6121 35.8147 14.642C35.7698 14.672 35.7361 14.6982 35.7136 14.7206C35.6312 14.8704 35.5676 14.9602 35.5227 14.9902C35.4703 15.0201 35.4216 15.065 35.3767 15.1249C35.2943 15.1699 35.2157 15.2298 35.1408 15.3046C35.0734 15.372 34.9873 15.4394 34.8825 15.5068C34.5681 15.8063 34.2985 16.0571 34.0739 16.2592C33.8493 16.4614 33.6097 16.6598 33.3552 16.8545C33.138 16.9818 32.9284 17.0978 32.7262 17.2026C32.6214 17.255 32.5129 17.3149 32.4005 17.3823C32.2957 17.4422 32.1872 17.5058 32.0749 17.5732C32.0449 17.5882 32.015 17.6069 31.985 17.6294C31.9551 17.6444 31.9251 17.6631 31.8952 17.6855C31.8353 17.738 31.7829 17.7679 31.7379 17.7754C31.6631 17.8053 31.5844 17.8166 31.5021 17.8091C31.4272 17.7941 31.3486 17.8278 31.2662 17.9102C31.124 17.9626 30.9668 18.0299 30.7946 18.1123C30.6373 18.1872 30.4876 18.2171 30.3453 18.2022C30.2929 18.1947 30.2293 18.1685 30.1544 18.1235C30.102 18.0936 30.0384 18.0824 29.9635 18.0898C29.9186 17.985 29.8212 17.9027 29.6715 17.8428C29.5217 17.7829 29.4693 17.6706 29.5143 17.5058C29.4319 17.3935 29.3495 17.2663 29.2672 17.124C29.2297 17.0566 29.1923 16.993 29.1549 16.9331C29.1174 16.8657 29.08 16.8021 29.0426 16.7422C29.0575 16.5475 29.0313 16.3903 28.964 16.2705C28.8966 16.1507 28.8254 16.0309 28.7506 15.9111C28.7356 15.8662 28.7206 15.8212 28.7056 15.7763C28.6907 15.7314 28.6757 15.6865 28.6607 15.6416C28.6308 15.5592 28.5971 15.4918 28.5596 15.4394C28.5147 15.3645 28.4885 15.2971 28.481 15.2372C28.3163 15.3271 28.1965 15.402 28.1217 15.4619C28.0468 15.5218 27.942 15.6116 27.8072 15.7314C27.7698 15.7613 27.7323 15.7913 27.6949 15.8212C27.6649 15.8437 27.635 15.8662 27.605 15.8886C27.5751 15.9111 27.5414 15.9373 27.504 15.9672C27.474 15.9897 27.4403 16.0159 27.4029 16.0459C27.2307 16.1432 27.0884 16.248 26.9761 16.3603C26.9162 16.4202 26.8563 16.4876 26.7964 16.5625C26.744 16.6299 26.6841 16.6823 26.6167 16.7197L26.3809 16.8545C26.3435 16.8769 26.3023 16.9031 26.2574 16.9331C26.2199 16.9555 26.1825 16.9818 26.1451 17.0117C26.0926 17.0491 26.029 17.1053 25.9541 17.1802C25.8942 17.2401 25.8231 17.2962 25.7407 17.3486C25.6958 17.3786 25.6509 17.4235 25.606 17.4834C25.5611 17.5358 25.5086 17.5807 25.4487 17.6182C25.3739 17.6855 25.2765 17.7454 25.1567 17.7978C25.037 17.8503 24.9396 17.9102 24.8648 17.9775C24.6851 18.1572 24.5203 18.2957 24.3706 18.3931C24.2209 18.4904 24.0487 18.5241 23.854 18.4942C23.7567 18.4343 23.6032 18.3669 23.3935 18.292C23.1764 18.2171 23.0678 18.1423 23.0678 18.0674C23.1277 18.0075 23.1876 17.9588 23.2475 17.9214C23.3074 17.8839 23.3748 17.8428 23.4497 17.7978C23.6069 17.6406 23.7754 17.5021 23.9551 17.3823C24.0374 17.3224 24.1235 17.2663 24.2134 17.2139C24.3032 17.154 24.3931 17.0941 24.4829 17.0342C24.6027 16.9593 24.6963 16.8694 24.7637 16.7646C24.8385 16.6523 24.9321 16.555 25.0444 16.4726C25.1043 16.3678 25.1717 16.2929 25.2466 16.248C25.2915 16.2031 25.3252 16.1657 25.3477 16.1357C25.3701 16.1058 25.4038 16.0683 25.4487 16.0234C25.6135 15.9336 25.6958 15.8811 25.6958 15.8662C25.6958 15.8512 25.7033 15.8362 25.7183 15.8212C25.8456 15.7314 25.9354 15.6416 25.9878 15.5517C26.0178 15.5292 26.0702 15.4956 26.1451 15.4506C26.2124 15.4132 26.2723 15.372 26.3247 15.3271C26.3996 15.2672 26.4707 15.211 26.5381 15.1586C26.613 15.1062 26.6804 15.0576 26.7403 15.0126L27.1334 14.7206C27.2157 14.6383 27.2981 14.5709 27.3804 14.5185C27.4253 14.4885 27.4665 14.4586 27.504 14.4286C27.5489 14.3987 27.5901 14.3687 27.6275 14.3388C27.7173 14.1591 27.7398 14.0468 27.6949 14.0019C27.6425 13.9495 27.6125 13.912 27.605 13.8896C27.5901 13.8147 27.5826 13.7511 27.5826 13.6986C27.5826 13.6462 27.5751 13.5826 27.5601 13.5077L27.4927 13.1708C27.4852 13.066 27.4553 12.9574 27.4029 12.8451C27.3655 12.7553 27.328 12.6467 27.2906 12.5194C27.2606 12.452 27.2344 12.3584 27.212 12.2387C27.1895 12.1338 27.1633 12.0477 27.1334 11.9803C27.1184 11.9354 27.1034 11.8905 27.0884 11.8456C27.0809 11.7932 27.0697 11.7408 27.0547 11.6884C27.0248 11.5686 26.9986 11.4787 26.9761 11.4188C26.9312 11.3439 26.9013 11.284 26.8863 11.2391C26.8713 11.1942 26.8788 11.1193 26.9087 11.0145C26.9237 10.9097 26.9312 10.8423 26.9312 10.8124C26.9312 10.7525 26.9611 10.7001 27.021 10.6551C27.1483 10.5728 27.2232 10.5204 27.2457 10.4979L27.3355 10.4081C27.4328 10.3706 27.5601 10.307 27.7173 10.2171C27.8671 10.1273 27.9869 10.0636 28.0767 10.0262C28.2864 9.89144 28.4399 9.86524 28.5372 9.94759C28.6345 10.03 28.6982 10.131 28.7281 10.2508C28.6532 10.4305 28.6195 10.5428 28.627 10.5877C28.6345 10.6177 28.6383 10.6626 28.6383 10.7225C28.6083 10.8498 28.5933 10.9808 28.5933 11.1156C28.5933 11.2204 28.6383 11.314 28.7281 11.3964C28.6982 11.4563 28.6944 11.5087 28.7169 11.5536C28.7393 11.5985 28.7655 11.6359 28.7955 11.6659C28.8404 11.913 28.9153 12.1376 29.0201 12.3397C29.0725 12.4371 29.1249 12.5381 29.1773 12.643C29.2297 12.7403 29.2822 12.8414 29.3346 12.9462ZM42.0252 11.7557L42.0028 11.9354C42.0178 11.9878 42.0028 12.0777 41.9579 12.205C41.883 12.2948 41.8381 12.3921 41.8231 12.497C41.7931 12.5569 41.7669 12.6093 41.7445 12.6542C41.722 12.6991 41.7033 12.759 41.6883 12.8339C41.6584 12.9237 41.6471 13.0285 41.6546 13.1483C41.6621 13.2082 41.6621 13.2681 41.6546 13.328C41.6546 13.3804 41.6509 13.4329 41.6434 13.4853C41.6135 13.65 41.591 13.811 41.576 13.9682C41.561 14.1254 41.5461 14.2864 41.5311 14.4511C41.5311 14.6158 41.5161 14.803 41.4862 15.0126C41.4562 15.2223 41.4263 15.4095 41.3963 15.5742C41.4637 15.694 41.5011 15.8063 41.5086 15.9111C41.5161 16.0234 41.5685 16.1207 41.6659 16.2031C41.9654 16.1582 42.2049 16.087 42.3846 15.9897C42.5643 15.8924 42.7365 15.7539 42.9012 15.5742C43.021 15.5218 43.1146 15.4694 43.182 15.4169C43.2419 15.3645 43.328 15.3046 43.4403 15.2372L43.62 15.0576C43.7997 14.9602 43.9008 14.9003 43.9232 14.8779C43.9382 14.8629 43.9569 14.8479 43.9794 14.8329C44.0093 14.818 44.0393 14.803 44.0692 14.788C44.3238 14.6233 44.5185 14.4511 44.6532 14.2714C44.7655 14.1816 44.8591 14.088 44.934 13.9906C44.9939 13.9083 45.1099 13.8297 45.2821 13.7548C45.3795 13.635 45.488 13.5339 45.6078 13.4516C45.7276 13.3692 45.8362 13.2681 45.9335 13.1483C46.0159 13.1483 46.0758 13.1633 46.1132 13.1933C46.1357 13.2082 46.1581 13.2232 46.1806 13.2382C46.2106 13.2532 46.2405 13.2681 46.2704 13.2831C46.3154 13.4029 46.3229 13.5264 46.2929 13.6537C46.263 13.781 46.2106 13.8971 46.1357 14.0019C46.0608 14.0992 46.0234 14.1591 46.0234 14.1816C46.0234 14.1965 46.0159 14.2115 46.0009 14.2265C45.956 14.2789 45.8998 14.3351 45.8325 14.3949C45.7651 14.4474 45.7089 14.5035 45.664 14.5634C45.5891 14.6982 45.5292 14.7656 45.4843 14.7656C45.4394 14.7656 45.4019 14.7805 45.372 14.8105C45.2372 14.8928 45.1436 14.9527 45.0912 14.9902C45.0313 15.0426 44.9452 15.1025 44.8329 15.1699C44.6757 15.2522 44.5784 15.3121 44.5409 15.3496C44.5035 15.387 44.4735 15.4095 44.4511 15.4169C44.2714 15.6191 44.0954 15.7876 43.9232 15.9223C43.766 16.0421 43.5975 16.2106 43.4179 16.4277C43.358 16.4726 43.2981 16.5175 43.2382 16.5625C43.1783 16.6074 43.1259 16.6673 43.0809 16.7422C42.9462 16.832 42.8376 16.9219 42.7552 17.0117C42.6729 17.1015 42.5793 17.2064 42.4745 17.3262C42.3846 17.3711 42.2873 17.4347 42.1825 17.5171C42.0552 17.6144 41.9429 17.6855 41.8456 17.7305C41.8081 17.7529 41.7445 17.7866 41.6546 17.8315C41.5798 17.869 41.5086 17.8877 41.4413 17.8877C41.269 17.9176 41.1043 17.9027 40.9471 17.8428C40.8048 17.7904 40.6626 17.7454 40.5203 17.708C40.4604 17.6182 40.3856 17.5433 40.2957 17.4834C40.161 17.3187 40.0636 17.124 40.0037 16.8994C39.9438 16.6748 39.8839 16.4352 39.824 16.1806C39.6893 16.2705 39.577 16.3678 39.4871 16.4726C39.3973 16.5849 39.2625 16.6823 39.0828 16.7646C38.9331 16.9069 38.7796 17.0491 38.6223 17.1914C38.4651 17.3262 38.3004 17.4572 38.1282 17.5845C37.9635 17.7117 37.795 17.8465 37.6228 17.9888C37.4506 18.1235 37.2784 18.262 37.1062 18.4043C36.9864 18.5241 36.9041 18.569 36.8591 18.5391C36.7244 18.7038 36.4848 18.7562 36.1404 18.6963C36.0206 18.6364 35.8858 18.584 35.7361 18.5391C35.6312 18.5091 35.5114 18.4642 35.3767 18.4043C35.1221 18.3594 34.9087 18.2471 34.7365 18.0674C34.5643 17.8877 34.4183 17.6781 34.2985 17.4385C34.2536 17.3112 34.2199 17.1989 34.1975 17.1015C34.19 17.0491 34.1787 16.993 34.1638 16.9331C34.1488 16.8732 34.1338 16.8095 34.1188 16.7422C34.1114 16.6149 34.0889 16.5138 34.0515 16.4389C34.0215 16.3566 34.0215 16.278 34.0515 16.2031C34.0215 16.1657 34.014 16.117 34.029 16.0571C34.044 15.9822 34.0515 15.9261 34.0515 15.8886C34.0365 15.679 34.0552 15.4544 34.1076 15.2148C34.16 14.9752 34.2311 14.7581 34.321 14.5634C34.3659 14.4885 34.4258 14.4137 34.5007 14.3388C34.5381 14.2939 34.5606 14.2489 34.5681 14.204C34.5756 14.1666 34.598 14.1292 34.6355 14.0917C34.6729 14.0468 34.7178 14.0019 34.7702 13.957C34.8451 13.8971 34.8975 13.8521 34.9275 13.8222C34.9649 13.7698 35.0023 13.7211 35.0398 13.6762C35.0847 13.6238 35.1333 13.5789 35.1858 13.5414C35.2382 13.504 35.2868 13.4628 35.3318 13.4179C35.3767 13.373 35.4216 13.328 35.4665 13.2831C35.5189 13.2307 35.5601 13.1783 35.5901 13.1259C35.6275 13.066 35.6837 13.0211 35.7585 12.9911C35.8184 12.8863 35.8858 12.8002 35.9607 12.7328C36.0355 12.6654 36.1179 12.5943 36.2078 12.5194C36.4623 12.2125 36.7768 11.9504 37.1511 11.7333C37.533 11.5161 37.8699 11.2766 38.1619 11.0145C38.2667 10.9696 38.3566 10.9172 38.4314 10.8573C38.5063 10.7974 38.5812 10.7375 38.656 10.6776C38.8432 10.5129 39.0454 10.4605 39.2625 10.5204L39.8465 10.6776C39.9962 10.8124 40.1422 10.9471 40.2845 11.0819C40.4267 11.2167 40.5503 11.3664 40.6551 11.5311C40.7075 11.5236 40.7637 11.5199 40.8236 11.5199C40.8835 11.5124 40.9471 11.5124 41.0145 11.5199C41.1493 11.5349 41.2915 11.5236 41.4413 11.4862C41.4862 11.4862 41.5311 11.475 41.576 11.4525C41.6209 11.43 41.6584 11.4188 41.6883 11.4188C41.9129 11.4937 42.0252 11.606 42.0252 11.7557ZM39.0603 12.0927C38.656 12.2873 38.2892 12.5157 37.9597 12.7777C37.6303 13.0398 37.3158 13.3205 37.0164 13.62C36.9789 13.6575 36.9377 13.6949 36.8928 13.7323C36.8554 13.7623 36.818 13.796 36.7805 13.8334C36.7431 13.8634 36.7056 13.8971 36.6682 13.9345C36.6308 13.9719 36.5971 14.0094 36.5671 14.0468C36.5072 14.1217 36.4511 14.2115 36.3987 14.3163C36.3463 14.4212 36.2976 14.5185 36.2527 14.6083C36.2377 14.6383 36.2227 14.6682 36.2078 14.6982C36.1928 14.7206 36.1778 14.7394 36.1628 14.7543C36.1479 14.7693 36.1329 14.788 36.1179 14.8105C36.1029 14.8329 36.088 14.8554 36.073 14.8779C36.043 14.9527 36.0318 15.0276 36.0393 15.1025C36.0468 15.1549 36.0505 15.2372 36.0505 15.3496V15.5742C36.0505 15.6191 36.058 15.694 36.073 15.7988C36.1179 15.9635 36.1404 16.1282 36.1404 16.2929C36.1404 16.4127 36.1516 16.5587 36.1741 16.7309C36.1965 16.9031 36.2527 17.0192 36.3425 17.0791C36.4399 17.139 36.5334 17.154 36.6233 17.124C36.7281 17.0866 36.8142 17.0641 36.8816 17.0566C37.4057 16.6523 37.8998 16.2293 38.364 15.7876C38.8282 15.3458 39.24 14.8479 39.5994 14.2939C39.5695 13.927 39.5657 13.5489 39.5882 13.1596C39.6106 12.7927 39.577 12.452 39.4871 12.1376C39.4272 12.1001 39.3561 12.0889 39.2737 12.1039C39.2138 12.1114 39.1427 12.1076 39.0603 12.0927ZM47.6855 10.2284C47.8053 10.1984 47.8727 10.1947 47.8877 10.2171C47.9026 10.2396 47.9326 10.2508 47.9775 10.2508C48.0374 10.3332 48.0449 10.453 48 10.6102C47.9476 10.8498 47.8427 11.0782 47.6855 11.2953C47.5283 11.5124 47.4085 11.7258 47.3261 11.9354C47.2737 12.0402 47.2251 12.1338 47.1801 12.2162C47.1427 12.2911 47.109 12.3584 47.0791 12.4183C47.0491 12.4708 47.0192 12.5269 46.9892 12.5868C46.9668 12.6467 46.9443 12.7066 46.9218 12.7665C46.847 12.9312 46.7721 13.1146 46.6972 13.3168C46.6223 13.519 46.5475 13.7249 46.4726 13.9345L46.3378 14.2265C46.263 14.3912 46.2031 14.5372 46.1581 14.6645C46.1132 14.7918 46.0833 14.9527 46.0683 15.1474V15.7539C46.0833 15.8587 46.0945 15.9672 46.102 16.0796C46.1095 16.1919 46.117 16.3079 46.1244 16.4277C46.1394 16.6748 46.1881 16.8769 46.2704 17.0342C46.4576 16.9443 46.6598 16.7908 46.8769 16.5737C46.9817 16.4689 47.0791 16.3753 47.1689 16.2929C47.2662 16.2031 47.3561 16.1282 47.4384 16.0683C47.5433 15.9186 47.6593 15.7801 47.7866 15.6528C47.9214 15.518 48.0299 15.372 48.1123 15.2148C48.292 15.065 48.4118 14.8704 48.4717 14.6308C48.5465 14.5484 48.6177 14.4548 48.685 14.35C48.7225 14.2976 48.7562 14.2489 48.7861 14.204C48.8236 14.1516 48.861 14.0992 48.8984 14.0468C49.0107 13.8896 49.1081 13.7024 49.1904 13.4853C49.2354 13.358 49.2541 13.2382 49.2466 13.1259C49.2391 13.066 49.2354 13.0061 49.2354 12.9462C49.2354 12.8863 49.2354 12.8264 49.2354 12.7665C49.2428 12.6392 49.2653 12.5119 49.3027 12.3847C49.3327 12.2798 49.3402 12.16 49.3252 12.0253C49.3477 11.9878 49.3739 11.9242 49.4038 11.8344C49.4338 11.7445 49.46 11.6734 49.4824 11.621C49.5124 11.5461 49.5685 11.4637 49.6509 11.3739C49.7332 11.284 49.8119 11.2017 49.8867 11.1268C49.9391 11.0594 49.9878 10.992 50.0327 10.9247C50.0851 10.8573 50.1338 10.7899 50.1787 10.7225C50.2611 10.5952 50.3734 10.4904 50.5156 10.4081L50.7852 10.2957C50.8975 10.2433 50.9873 10.2134 51.0547 10.2059C51.167 10.1909 51.3168 10.1572 51.504 10.1048C51.6986 10.0449 51.8484 10.0337 51.9532 10.0711C52.0131 10.0786 52.0692 10.1123 52.1216 10.1722C52.174 10.2171 52.2377 10.2134 52.3126 10.161C52.4324 10.2883 52.4923 10.4006 52.4923 10.4979C52.4923 10.5877 52.4623 10.6851 52.4024 10.7899C52.3051 10.9322 52.2527 11.0183 52.2452 11.0482C52.2377 11.0632 52.2302 11.0819 52.2227 11.1044C52.2152 11.1193 52.2077 11.1343 52.2003 11.1493C52.0655 11.3739 51.9307 11.621 51.7959 11.8905C51.6612 12.16 51.5489 12.4146 51.459 12.6542C51.6088 12.7291 51.8072 12.7628 52.0543 12.7553C52.3013 12.7478 52.5222 12.7216 52.7169 12.6767C52.7468 12.6692 52.773 12.6617 52.7955 12.6542C52.8254 12.6467 52.8554 12.6392 52.8853 12.6317C52.9153 12.6242 52.9415 12.6168 52.9639 12.6093C52.9939 12.6018 53.0238 12.5943 53.0538 12.5868C53.1511 12.5569 53.2971 12.5307 53.4918 12.5082C53.649 12.4857 53.795 12.4446 53.9298 12.3847C54.102 12.2948 54.2068 12.2499 54.2442 12.2499C54.2966 12.2499 54.3491 12.2349 54.4015 12.205C54.5437 12.1675 54.6747 12.1301 54.7945 12.0927C54.9143 12.0552 55.0229 12.0178 55.1202 11.9803C55.1726 11.9654 55.2251 11.9504 55.2775 11.9354C55.3299 11.913 55.3823 11.8868 55.4347 11.8568C55.5395 11.7969 55.6368 11.7857 55.7267 11.8231C55.7566 11.8531 55.7679 11.9055 55.7604 11.9803C55.7529 12.0477 55.7716 12.1226 55.8165 12.205C55.6967 12.3023 55.6069 12.3472 55.547 12.3397C55.4272 12.3996 55.3037 12.4558 55.1764 12.5082C55.0491 12.5606 54.9143 12.613 54.7721 12.6654L53.9747 12.9462C53.795 13.0285 53.6752 13.0622 53.6153 13.0473C53.5629 13.0323 53.4955 13.0435 53.4132 13.081C53.1661 13.1933 52.9527 13.2756 52.773 13.328C52.6233 13.373 52.4923 13.4254 52.3799 13.4853C52.32 13.5302 52.2789 13.5639 52.2564 13.5863C52.219 13.6238 52.1703 13.65 52.1104 13.665C51.8558 13.7099 51.6387 13.7286 51.459 13.7211C51.2718 13.7136 51.0772 13.7623 50.875 13.8671C50.8301 13.957 50.7702 14.058 50.6953 14.1703C50.6205 14.2826 50.5381 14.3762 50.4483 14.4511C50.3734 14.6008 50.2948 14.7281 50.2124 14.8329C50.1301 14.9378 50.0365 15.0501 49.9317 15.1699C49.7969 15.2897 49.6621 15.4169 49.5273 15.5517C49.3926 15.6865 49.2653 15.8138 49.1455 15.9336C48.9359 16.278 48.6925 16.5962 48.4155 16.8882C48.1385 17.1802 47.8502 17.4684 47.5507 17.7529C47.4759 17.7604 47.4047 17.7941 47.3374 17.854C47.285 17.8989 47.2138 17.9401 47.124 17.9775C47.0266 18.0075 46.948 18.0299 46.8881 18.0449C46.8357 18.0674 46.802 18.0824 46.7871 18.0898C46.7571 18.0973 46.7122 18.1198 46.6523 18.1572C46.5475 18.2022 46.4689 18.2433 46.4164 18.2808C46.3715 18.3107 46.3378 18.3369 46.3154 18.3594C46.2779 18.3893 46.233 18.4043 46.1806 18.4043C46.1432 18.4043 46.1057 18.4343 46.0683 18.4942C45.8811 18.4567 45.7688 18.4792 45.7314 18.5615C45.6715 18.5615 45.6116 18.569 45.5517 18.584C45.5068 18.599 45.4544 18.599 45.3945 18.584C45.3495 18.5466 45.3158 18.5129 45.2934 18.4829C45.2634 18.438 45.2372 18.4043 45.2148 18.3818C44.9901 18.292 44.8554 18.1947 44.8105 18.0898C44.758 17.9775 44.6907 17.8952 44.6083 17.8428C44.5409 17.6855 44.4997 17.5058 44.4848 17.3037C44.4773 17.2139 44.4698 17.124 44.4623 17.0342C44.4548 16.9368 44.4436 16.8395 44.4286 16.7422C44.4211 16.7122 44.4136 16.686 44.4062 16.6635C44.3987 16.6336 44.3912 16.6037 44.3837 16.5737C44.3762 16.5438 44.3687 16.5175 44.3612 16.4951C44.3537 16.4651 44.3463 16.4352 44.3388 16.4052C44.3088 16.2854 44.2976 16.1657 44.3051 16.0459C44.3126 15.9336 44.2938 15.8138 44.2489 15.6865C44.3238 15.4469 44.3313 15.2148 44.2714 14.9902C44.3013 14.8854 44.3388 14.7468 44.3837 14.5746C44.4286 14.4024 44.4586 14.2564 44.4735 14.1366C44.511 13.8222 44.5671 13.5601 44.642 13.3505C44.7244 13.1409 44.8479 12.8788 45.0126 12.5643C45.0725 12.4296 45.1399 12.2948 45.2148 12.16C45.2522 12.0927 45.2896 12.0253 45.3271 11.9579C45.3645 11.883 45.4019 11.8081 45.4394 11.7333C45.4768 11.6584 45.5068 11.5985 45.5292 11.5536C45.5592 11.5012 45.5779 11.4637 45.5854 11.4413C45.6153 11.3889 45.664 11.3065 45.7314 11.1942L45.8437 10.992C45.8886 10.9172 45.941 10.8498 46.0009 10.7899C46.1207 10.6701 46.233 10.5765 46.3378 10.5091C46.4427 10.4417 46.5699 10.3706 46.7197 10.2957C46.8619 10.3257 47.0454 10.2995 47.27 10.2171C47.4946 10.1348 47.6331 10.1385 47.6855 10.2284ZM58.2424 6.74685L58.467 6.81423C58.4969 6.85167 58.5119 6.89659 58.5119 6.949C58.5119 6.98644 58.5344 7.02387 58.5793 7.06131C58.5493 7.19607 58.5231 7.33459 58.5007 7.47684C58.4782 7.6191 58.467 7.75761 58.467 7.89238C58.467 7.94479 58.4857 7.9972 58.5231 8.04961C58.5606 8.10202 58.5793 8.14694 58.5793 8.18438C58.5044 8.35658 58.4483 8.4614 58.4108 8.49884C58.3734 8.53627 58.3547 8.57371 58.3547 8.61114C58.2798 8.64109 58.2236 8.68601 58.1862 8.74591C58.1488 8.80581 58.0851 8.83576 57.9953 8.83576C57.9653 8.88068 57.9317 8.91437 57.8942 8.93683C57.8493 8.96678 57.8231 9.00796 57.8156 9.06037C57.5685 9.16519 57.299 9.1577 57.007 9.03791C56.9246 8.89565 56.8198 8.79832 56.6925 8.74591C56.4979 8.4614 56.4904 8.12448 56.6701 7.73515C56.7 7.66028 56.7337 7.58166 56.7711 7.4993C56.8086 7.41695 56.8423 7.36079 56.8722 7.33084C57.0295 7.21854 57.1492 7.14367 57.2316 7.10623C57.2616 7.09126 57.2915 7.07628 57.3214 7.06131C57.3589 7.03885 57.3926 7.01638 57.4225 6.99392C57.4749 6.95649 57.5536 6.91905 57.6584 6.88162C57.7033 6.86664 57.7445 6.85915 57.7819 6.85915C57.8418 6.85915 57.898 6.84418 57.9504 6.81423C57.9803 6.80674 58.0065 6.79926 58.029 6.79177C58.0589 6.78428 58.0851 6.7768 58.1076 6.76931C58.1675 6.75433 58.2124 6.74685 58.2424 6.74685ZM54.8732 16.6972L54.9855 16.7422C55.1202 16.6823 55.285 16.6598 55.4796 16.6748C55.6818 16.6898 55.839 16.6598 55.9513 16.5849C56.0262 16.525 56.0786 16.4801 56.1085 16.4502C56.1535 16.4052 56.2059 16.3903 56.2658 16.4052C56.5054 16.3154 56.7075 16.2256 56.8722 16.1357C57.0444 16.0459 57.2241 15.9785 57.4113 15.9336C57.5311 15.8886 57.6359 15.8212 57.7258 15.7314C58.0327 15.6341 58.291 15.4956 58.5007 15.3159C58.7178 15.1362 58.9536 14.9453 59.2082 14.7431C59.4178 14.6233 59.5938 14.5185 59.736 14.4286C59.8783 14.3388 60.0318 14.2265 60.1965 14.0917C60.2339 14.0094 60.2751 13.9532 60.32 13.9233C60.3575 13.9008 60.3987 13.8521 60.4436 13.7773C60.7131 13.7773 60.8629 13.8821 60.8928 14.0917C60.8179 14.2564 60.7169 14.3912 60.5896 14.496C60.4548 14.6083 60.3388 14.7281 60.2414 14.8554C60.1216 14.9303 60.0243 14.9977 59.9494 15.0576C59.8746 15.1175 59.7997 15.2073 59.7248 15.3271C59.7173 15.3271 59.6724 15.3608 59.59 15.4282C59.5152 15.4956 59.4703 15.5292 59.4553 15.5292C59.3355 15.6715 59.2456 15.7576 59.1857 15.7876C59.1258 15.8175 59.021 15.8961 58.8713 16.0234C58.774 16.1881 58.6392 16.3229 58.467 16.4277C58.145 16.7347 57.8044 16.993 57.445 17.2026C57.2578 17.3074 57.0819 17.416 56.9171 17.5283C56.7524 17.6331 56.5952 17.738 56.4455 17.8428C56.3706 17.8877 56.3182 17.9289 56.2882 17.9663C56.2583 18.0037 56.2059 18.0524 56.131 18.1123C56.0561 18.1722 55.9401 18.2321 55.7828 18.292C55.6256 18.3519 55.4871 18.4043 55.3673 18.4492C55.27 18.5091 55.1876 18.554 55.1202 18.584C54.7833 18.599 54.5288 18.5466 54.3565 18.4268C54.1619 18.3219 54.0121 18.2396 53.9073 18.1797C53.8025 18.1198 53.7127 18.0225 53.6378 17.8877C53.4656 17.8053 53.3645 17.6668 53.3346 17.4722C53.3196 17.3673 53.3009 17.2663 53.2784 17.1689C53.2559 17.0716 53.2335 16.9743 53.211 16.8769C53.196 16.8021 53.1811 16.716 53.1661 16.6186C53.1511 16.5213 53.1511 16.4202 53.1661 16.3154C53.2035 16.1432 53.226 15.9672 53.2335 15.7876C53.241 15.6228 53.2784 15.4619 53.3458 15.3046C53.4132 15.1549 53.4543 14.9902 53.4693 14.8105C53.4843 14.6308 53.5255 14.4661 53.5929 14.3163C53.6902 14.1666 53.7314 14.0842 53.7164 14.0693C53.7089 14.0618 53.7127 14.0393 53.7276 14.0019L53.8287 13.8671C53.8512 13.8372 53.8849 13.7847 53.9298 13.7099L54.0645 13.373C54.1319 13.2457 54.1993 13.1409 54.2667 13.0585C54.3341 12.9687 54.394 12.8414 54.4464 12.6767C54.4838 12.5718 54.525 12.4895 54.5699 12.4296C54.5999 12.3921 54.6261 12.3547 54.6485 12.3173C54.6785 12.2723 54.7084 12.2274 54.7384 12.1825C54.7758 12.1076 54.8133 12.014 54.8507 11.9017C54.8657 11.8493 54.8806 11.8007 54.8956 11.7557C54.9181 11.7033 54.9405 11.6509 54.963 11.5985C55.0079 11.4787 55.0641 11.3589 55.1315 11.2391C55.1988 11.1193 55.27 10.9995 55.3448 10.8797C55.4047 10.7599 55.4572 10.6701 55.5021 10.6102C55.547 10.5503 55.6368 10.5129 55.7716 10.4979C55.839 10.4829 55.9064 10.4867 55.9738 10.5091C56.0561 10.5316 56.131 10.5278 56.1984 10.4979C56.393 10.4081 56.5278 10.3631 56.6027 10.3631C56.6776 10.3631 56.73 10.3407 56.7599 10.2957C56.9171 10.3032 57.0369 10.3556 57.1193 10.453C57.2017 10.5428 57.2915 10.6327 57.3888 10.7225C57.299 11.1568 57.1979 11.4899 57.0856 11.722C56.9733 11.9541 56.8498 12.1975 56.715 12.452C56.6401 12.5718 56.5652 12.7066 56.4904 12.8563C56.4155 13.0061 56.3481 13.1409 56.2882 13.2606C56.2134 13.4254 56.1347 13.5714 56.0524 13.6986C55.955 13.8484 55.8839 13.9944 55.839 14.1366L55.7379 14.35C55.693 14.4399 55.6593 14.511 55.6368 14.5634C55.6219 14.6158 55.6032 14.6682 55.5807 14.7206C55.5657 14.7656 55.5433 14.8067 55.5133 14.8442C55.4834 14.8816 55.4572 14.9228 55.4347 14.9677C55.4122 15.0051 55.3898 15.0426 55.3673 15.08C55.3224 15.1699 55.2775 15.2597 55.2325 15.3496C55.1876 15.4394 55.1502 15.5367 55.1202 15.6416C55.0454 15.8063 55.0004 15.9148 54.9855 15.9672C54.978 15.9822 54.9705 16.0009 54.963 16.0234C54.9555 16.0384 54.948 16.0533 54.9405 16.0683C54.9106 16.233 54.8657 16.3678 54.8058 16.4726C54.7459 16.5774 54.7683 16.6523 54.8732 16.6972ZM59.4553 13.036C59.5526 12.9836 59.6724 12.8713 59.8147 12.6991C59.9569 12.5194 60.0954 12.3472 60.2302 12.1825C60.365 12.0103 60.466 11.913 60.5334 11.8905C60.5783 11.8156 60.6195 11.752 60.657 11.6996C60.6944 11.6472 60.7506 11.5985 60.8254 11.5536C60.9452 11.3365 61.1024 11.153 61.2971 11.0033C61.4993 10.846 61.6864 10.6776 61.8586 10.4979C62.0009 10.438 62.1432 10.3706 62.2854 10.2957C62.4352 10.2209 62.5812 10.1348 62.7234 10.0374C63.0154 9.84277 63.3411 9.7417 63.7005 9.73421C63.8652 9.80908 64.0262 9.83154 64.1834 9.8016C64.3331 9.77165 64.4791 9.80908 64.6214 9.9139C64.7038 10.0562 64.7711 10.1423 64.8236 10.1722C64.876 10.2022 64.9209 10.2433 64.9583 10.2957C65.0182 10.4829 65.0631 10.6065 65.0931 10.6664C65.1305 10.7263 65.153 10.7899 65.1605 10.8573C65.168 10.9696 65.1754 11.0669 65.1829 11.1493C65.1904 11.2241 65.1979 11.2878 65.2054 11.3402C65.2129 11.4375 65.2129 11.5311 65.2054 11.621C65.1605 12.0028 65.0856 12.3847 64.9808 12.7665C64.9658 12.8114 64.9508 12.8563 64.9359 12.9013C64.9209 12.9462 64.9059 12.9949 64.8909 13.0473C64.861 13.1446 64.8236 13.2307 64.7786 13.3056C64.6663 13.4478 64.5877 13.5639 64.5428 13.6537C64.4754 13.7735 64.4267 13.8521 64.3968 13.8896C64.3069 13.9794 64.2208 14.0618 64.1385 14.1366C64.0636 14.2115 63.9925 14.2789 63.9251 14.3388C63.8577 14.3762 63.7903 14.4174 63.7229 14.4623C63.6556 14.4998 63.5882 14.5409 63.5208 14.5859C63.3935 14.6682 63.2438 14.7281 63.0716 14.7656L62.8694 14.8891C62.802 14.934 62.7272 14.9602 62.6448 14.9677C62.51 15.065 62.3603 15.1437 62.1956 15.2036C62.1207 15.2335 62.0421 15.2635 61.9597 15.2934C61.8849 15.3234 61.8062 15.357 61.7239 15.3945C61.6116 15.4394 61.5142 15.4918 61.4319 15.5517C61.3495 15.6116 61.2447 15.6715 61.1174 15.7314C61.05 15.7539 60.9415 15.7801 60.7917 15.81C60.6495 15.8325 60.5484 15.8587 60.4885 15.8886C60.5634 16.0384 60.5933 16.2256 60.5783 16.4502C60.5709 16.6598 60.6083 16.847 60.6907 17.0117C60.8853 17.0566 61.0987 17.0903 61.3308 17.1128C61.5629 17.1352 61.7838 17.1315 61.9934 17.1015C62.0309 17.0941 62.0683 17.0828 62.1057 17.0679C62.1506 17.0529 62.1956 17.0379 62.2405 17.0229C62.2854 17.008 62.3303 16.993 62.3753 16.978C62.4202 16.963 62.4651 16.9518 62.51 16.9443C62.6747 16.9144 62.8357 16.8769 62.9929 16.832C63.1502 16.7871 63.2887 16.7272 63.4085 16.6523C63.8427 16.5026 64.262 16.3004 64.6663 16.0459C65.0706 15.7913 65.4225 15.5143 65.722 15.2148C65.9017 15.095 66.1001 14.9303 66.3172 14.7206C66.5344 14.511 66.7028 14.3163 66.8226 14.1366C67.0472 13.8971 67.2456 13.7099 67.4178 13.5751C67.59 13.4403 67.751 13.3804 67.9008 13.3954C68.0206 13.3954 68.1366 13.4665 68.2489 13.6088C68.3612 13.7511 68.35 13.9045 68.2152 14.0693C68.073 14.1591 67.9157 14.2939 67.7435 14.4736C67.5788 14.6533 67.4066 14.7805 67.2269 14.8554C67.0996 14.9378 66.9312 15.1025 66.7215 15.3496C66.5194 15.5817 66.3509 15.7613 66.2162 15.8886C66.1862 15.9186 66.1525 15.9523 66.1151 15.9897C66.0776 16.0271 66.0327 16.0646 65.9803 16.102C65.883 16.1769 65.8044 16.2555 65.7445 16.3379C65.5124 16.5325 65.2878 16.6972 65.0706 16.832C64.9883 16.8021 64.9209 16.817 64.8685 16.8769C64.8011 16.9593 64.7412 17.0192 64.6888 17.0566C64.6663 17.0716 64.6439 17.0866 64.6214 17.1015C64.5989 17.1165 64.5727 17.1315 64.5428 17.1465C64.5128 17.1614 64.4866 17.1764 64.4642 17.1914C64.4417 17.2064 64.4192 17.2213 64.3968 17.2363C64.277 17.3411 64.146 17.446 64.0037 17.5508C63.8615 17.6556 63.7155 17.7454 63.5657 17.8203C63.416 17.9102 63.2662 17.9925 63.1165 18.0674C62.9667 18.1497 62.817 18.2209 62.6673 18.2808C62.5175 18.3407 62.3678 18.4118 62.218 18.4942C62.0758 18.5765 61.9335 18.6664 61.7913 18.7637L61.5442 18.7974C61.5068 18.8049 61.4693 18.8086 61.4319 18.8086C61.3944 18.8161 61.357 18.8236 61.3196 18.8311C61.2372 18.861 61.1586 18.876 61.0837 18.876C61.0089 18.876 60.9153 18.861 60.803 18.8311C60.3088 18.6963 59.9045 18.4567 59.59 18.1123C59.5451 18.0674 59.4965 18.0262 59.444 17.9888C59.3991 17.9438 59.3505 17.9027 59.2981 17.8652C59.1783 17.7754 59.0959 17.693 59.051 17.6182C58.9836 17.5058 58.9162 17.3299 58.8488 17.0903C58.774 16.8507 58.7103 16.6074 58.6579 16.3603C58.6055 16.1058 58.5793 15.9111 58.5793 15.7763C58.6242 15.6865 58.6729 15.533 58.7253 15.3159C58.7777 15.0913 58.8226 14.8704 58.8601 14.6533C58.8975 14.4286 58.9162 14.2714 58.9162 14.1816C58.9462 14.1516 59.0061 14.0543 59.0959 13.8896C59.1783 13.7174 59.2569 13.5452 59.3317 13.373C59.4141 13.1933 59.4553 13.081 59.4553 13.036ZM63.0716 11.5985C62.9667 11.7333 62.8619 11.8606 62.7571 11.9803C62.6523 12.1001 62.5325 12.2125 62.3977 12.3173C62.3079 12.482 62.2031 12.6317 62.0833 12.7665C61.9635 12.9013 61.8437 13.0285 61.7239 13.1483C61.664 13.2681 61.5966 13.3617 61.5217 13.4291C61.4469 13.4965 61.3645 13.5676 61.2747 13.6425C61.1773 13.8072 61.0575 13.9644 60.9153 14.1142C60.773 14.2639 60.7431 14.4361 60.8254 14.6308C60.9901 14.6607 61.1549 14.6383 61.3196 14.5634C61.4843 14.4885 61.6265 14.4212 61.7463 14.3613C61.8062 14.3238 61.8661 14.2901 61.926 14.2602C61.9934 14.2302 62.0571 14.2003 62.117 14.1703C62.1769 14.1404 62.2367 14.1104 62.2966 14.0805C62.3565 14.0505 62.4127 14.0168 62.4651 13.9794L63.0491 13.3954C63.1389 13.3131 63.2288 13.2157 63.3186 13.1034C63.3561 13.051 63.3935 12.9986 63.4309 12.9462C63.4759 12.8863 63.5208 12.8264 63.5657 12.7665C63.6031 12.6018 63.663 12.4483 63.7454 12.306C63.8352 12.1563 63.8727 12.0028 63.8577 11.8456C63.8502 11.7782 63.824 11.6996 63.7791 11.6097C63.7342 11.5199 63.708 11.4488 63.7005 11.3964C63.5433 11.3964 63.4272 11.4226 63.3523 11.475C63.3149 11.5049 63.27 11.5311 63.2176 11.5536C63.1726 11.5686 63.124 11.5835 63.0716 11.5985ZM73.2466 16.2256C73.3065 16.1432 73.3514 16.087 73.3813 16.0571C73.4188 16.0197 73.4637 15.986 73.5161 15.956C73.7033 15.5592 73.9466 15.2447 74.2461 15.0126C74.5531 14.7805 74.8788 14.5185 75.2232 14.2265C75.298 14.2265 75.3617 14.2003 75.4141 14.1479C75.4665 14.0955 75.5301 14.0543 75.605 14.0243C75.6949 13.942 75.781 13.8746 75.8633 13.8222C75.9307 13.7773 75.9869 13.7174 76.0318 13.6425C76.204 13.5601 76.365 13.4478 76.5147 13.3056C76.6719 13.1633 76.8254 13.036 76.9752 12.9237C77.095 12.8938 77.2222 12.9088 77.357 12.9687C77.4169 13.0884 77.4394 13.2157 77.4244 13.3505C77.4094 13.4853 77.3345 13.5601 77.1998 13.5751C77.1548 13.62 77.1062 13.665 77.0538 13.7099C77.0014 13.7548 76.9377 13.7847 76.8628 13.7997C76.7131 13.8297 76.6158 13.8896 76.5709 13.9794C76.5634 14.1217 76.5446 14.2078 76.5147 14.2377C76.4847 14.2677 76.466 14.2939 76.4585 14.3163C76.2938 14.5934 76.1104 14.8329 75.9082 15.0351C75.7061 15.2298 75.5152 15.4694 75.3355 15.7539C75.2531 15.8063 75.1857 15.8886 75.1333 16.0009C74.8638 16.1507 74.6654 16.2667 74.5381 16.3491C74.4108 16.4314 74.2948 16.5325 74.1899 16.6523C74.1001 16.7047 74.0552 16.7496 74.0552 16.7871C74.0552 16.817 74.0402 16.847 74.0103 16.8769C73.8605 17.0042 73.7744 17.0978 73.7519 17.1577C73.7295 17.2176 73.6958 17.2663 73.6509 17.3037C73.576 17.3561 73.5086 17.4085 73.4487 17.4609C73.3963 17.5058 73.3514 17.547 73.314 17.5845C73.2241 17.6743 73.1268 17.738 73.022 17.7754C72.8947 17.8802 72.7075 18.0037 72.4604 18.146C72.2133 18.2957 71.9588 18.408 71.6967 18.4829C71.4347 18.5653 71.2176 18.569 71.0454 18.4942L70.8881 18.3706C70.8582 18.3482 70.8058 18.3145 70.7309 18.2695C70.6336 18.1497 70.525 18.0487 70.4052 17.9663C70.3004 17.8914 70.1993 17.7829 70.102 17.6406C69.9897 17.4834 69.9185 17.3224 69.8886 17.1577C69.8586 16.9855 69.8025 16.817 69.7201 16.6523C69.6827 16.263 69.7126 15.941 69.81 15.6865C69.8923 15.4319 69.9822 15.1961 70.0795 14.9789C70.1768 14.7543 70.2854 14.5484 70.4052 14.3613C70.6373 14.0019 70.7983 13.5751 70.8881 13.081C70.7234 12.9162 70.6298 12.7628 70.6074 12.6205C70.5999 12.5456 70.5849 12.4595 70.5624 12.3622C70.54 12.2649 70.5138 12.1526 70.4838 12.0253C70.0945 12.2798 69.7351 12.6018 69.4057 12.9911C69.0762 13.3804 68.7842 13.7773 68.5297 14.1816L68.2601 14.6757C68.1853 14.818 68.0954 14.9527 67.9906 15.08C67.9157 15.1549 67.8783 15.2036 67.8783 15.226C67.8783 15.2485 67.8633 15.2747 67.8334 15.3046C67.7735 15.3795 67.7248 15.4431 67.6874 15.4956C67.6499 15.548 67.6237 15.5891 67.6088 15.6191C67.5938 15.649 67.5788 15.679 67.5638 15.7089C67.5489 15.7314 67.5339 15.7539 67.5189 15.7763C67.474 15.8362 67.4366 15.8811 67.4066 15.9111C67.3767 15.941 67.3392 15.986 67.2943 16.0459C67.0847 16.3453 66.8937 16.6261 66.7215 16.8882L66.1937 17.6855C66.1113 17.8128 66.0439 17.9401 65.9915 18.0674C65.9391 18.2022 65.8643 18.3219 65.7669 18.4268C65.6172 18.4417 65.5311 18.4193 65.5086 18.3594C65.4862 18.2995 65.4899 18.2471 65.5199 18.2022C65.3402 18.0824 65.2391 17.8503 65.2166 17.5058C65.1942 17.1614 65.2279 16.8844 65.3177 16.6748C65.2728 16.54 65.2578 16.4651 65.2728 16.4502C65.2878 16.4352 65.2952 16.4127 65.2952 16.3828C65.4899 16.1132 65.6883 15.8437 65.8905 15.5742C66.0926 15.3046 66.306 15.0501 66.5306 14.8105C66.568 14.7581 66.6055 14.7057 66.6429 14.6533C66.6804 14.6008 66.714 14.5484 66.744 14.496C66.8189 14.3837 66.8975 14.2864 66.9798 14.204C67.1071 13.9869 67.2606 13.7623 67.4403 13.5302C67.62 13.3056 67.766 13.0735 67.8783 12.8339C67.9607 12.7515 68.0168 12.6692 68.0468 12.5868C68.0842 12.497 68.1478 12.4221 68.2377 12.3622C68.2901 12.2723 68.335 12.1862 68.3724 12.1039C68.4174 12.014 68.4548 11.9279 68.4848 11.8456C68.5297 11.7033 68.612 11.5611 68.7318 11.4188C68.7618 11.314 68.7992 11.2316 68.8441 11.1717C68.8891 11.1118 68.949 11.0445 69.0238 10.9696C69.0313 10.9022 69.0725 10.8386 69.1474 10.7787C69.2222 10.7188 69.2784 10.6551 69.3158 10.5877C69.3533 10.4829 69.3907 10.4155 69.4281 10.3856C69.4731 10.3482 69.4955 10.2957 69.4955 10.2284C69.5704 10.1535 69.6453 10.0749 69.7201 9.99252C69.795 9.91016 69.8624 9.80908 69.9223 9.68929C70.1319 9.56949 70.2779 9.5096 70.3603 9.5096C70.4426 9.5096 70.5063 9.47216 70.5512 9.39729C70.6111 9.39729 70.6747 9.39729 70.7421 9.39729C70.817 9.39729 70.8956 9.39355 70.978 9.38606C71.1502 9.37109 71.24 9.42724 71.2475 9.55452C71.255 9.58447 71.255 9.6219 71.2475 9.66683C71.24 9.68929 71.2325 9.71175 71.225 9.73421C71.2176 9.75667 71.2101 9.77913 71.2026 9.8016C71.2101 9.93636 71.2101 10.0075 71.2026 10.015C71.1876 10.03 71.1801 10.0412 71.1801 10.0487C71.1651 10.1086 71.1614 10.161 71.1689 10.2059C71.1764 10.2433 71.1801 10.3107 71.1801 10.4081C71.1726 10.4679 71.1651 10.5204 71.1577 10.5653C71.1502 10.6102 71.1427 10.6514 71.1352 10.6888C71.1202 10.7637 71.1502 10.8498 71.225 10.9471C71.2625 10.9995 71.3074 11.0407 71.3598 11.0707C71.4122 11.1006 71.4646 11.1493 71.517 11.2167C71.5545 11.2541 71.5807 11.299 71.5957 11.3514C71.6106 11.4038 71.6368 11.4488 71.6743 11.4862C71.7042 11.5236 71.7491 11.5611 71.809 11.5985C71.8689 11.6359 71.9139 11.6884 71.9438 11.7557C72.0262 11.8156 72.0524 11.8531 72.0224 11.868C72 11.883 72.0337 11.913 72.1235 11.9579C72.2957 12.175 72.423 12.4071 72.5053 12.6542C72.6027 12.8414 72.685 12.9911 72.7524 13.1034C72.8273 13.2232 72.8273 13.343 72.7524 13.4628C72.7075 13.5077 72.6551 13.5976 72.5952 13.7323C72.5278 13.7997 72.4679 13.8746 72.4155 13.957C72.3855 14.0094 72.3631 14.0655 72.3481 14.1254C72.3406 14.1778 72.3182 14.2265 72.2807 14.2714C72.146 14.4885 72.0074 14.6832 71.8652 14.8554C71.7229 15.0276 71.5994 15.2148 71.4946 15.4169C71.5021 15.8437 71.5844 16.1582 71.7417 16.3603C71.9213 16.57 72.0337 16.6748 72.0786 16.6748C72.1759 16.6898 72.2807 16.6598 72.393 16.5849L72.685 16.4052C72.715 16.3903 72.7412 16.3753 72.7636 16.3603C72.7936 16.3453 72.8198 16.3304 72.8423 16.3154C72.8872 16.2854 72.9396 16.263 72.9995 16.248C73.1567 16.1956 73.2316 16.1769 73.2241 16.1919C73.2166 16.2143 73.2241 16.2256 73.2466 16.2256ZM84.8591 15.1474C84.934 15.1399 84.9939 15.1062 85.0388 15.0463C85.0687 15.0089 85.1211 14.9602 85.196 14.9003C85.2185 14.8854 85.2409 14.8704 85.2634 14.8554C85.2859 14.8404 85.3121 14.8255 85.342 14.8105C85.372 14.7955 85.3982 14.7805 85.4206 14.7656C85.4431 14.7506 85.4656 14.7356 85.488 14.7206C85.6827 14.5784 85.8511 14.4286 85.9934 14.2714C86.1357 14.1217 86.2966 13.9794 86.4763 13.8446C86.5737 13.7323 86.671 13.6275 86.7683 13.5302C86.8731 13.4254 86.9742 13.3243 87.0715 13.227C87.2587 13.0473 87.4422 12.8339 87.6219 12.5868C87.8614 12.4071 88.0861 12.2125 88.2957 12.0028C88.4379 11.913 88.554 11.8269 88.6438 11.7445C88.7337 11.6621 88.8572 11.576 89.0145 11.4862C89.0893 11.3964 89.1717 11.299 89.2615 11.1942C89.3514 11.0894 89.4562 10.9995 89.576 10.9247C89.7033 10.7974 89.8343 10.7075 89.9691 10.6551C90.1038 10.6027 90.2349 10.5129 90.3621 10.3856C90.5868 10.2658 90.7889 10.2471 90.9686 10.3294C91.1483 10.4118 91.2905 10.5129 91.3954 10.6327C91.4478 10.7674 91.5376 10.9097 91.6649 11.0594C91.6799 11.0819 91.6948 11.1044 91.7098 11.1268C91.7248 11.1493 91.7398 11.168 91.7547 11.183C91.7847 11.2129 91.7997 11.2691 91.7997 11.3514C91.7997 11.5236 91.7772 11.6958 91.7323 11.868C91.7098 11.9504 91.6874 12.0328 91.6649 12.1151C91.6499 12.1975 91.635 12.2798 91.62 12.3622C91.605 12.467 91.5938 12.5718 91.5863 12.6767C91.5788 12.774 91.5713 12.8751 91.5638 12.9799C91.5563 13.1745 91.5226 13.3804 91.4627 13.5976C91.5451 13.7174 91.6162 13.8446 91.6761 13.9794C91.736 14.1217 91.8072 14.234 91.8895 14.3163C91.9419 14.3088 92.0093 14.2489 92.0917 14.1366C92.1291 14.1067 92.1665 14.0805 92.204 14.058C92.2489 14.0281 92.2976 13.9981 92.35 13.9682C92.4548 13.9083 92.5409 13.8446 92.6083 13.7773C92.6682 13.7174 92.7243 13.6612 92.7767 13.6088C92.8291 13.5564 92.8816 13.5077 92.934 13.4628C93.0463 13.3655 93.1474 13.2606 93.2372 13.1483C93.2896 13.0959 93.342 13.0473 93.3944 13.0023C93.4468 12.9499 93.4992 12.9013 93.5517 12.8563C93.6041 12.8114 93.6565 12.7665 93.7089 12.7216C93.7688 12.6692 93.8287 12.6168 93.8886 12.5643C93.9485 12.5044 94.0046 12.4446 94.057 12.3847C94.1094 12.3173 94.1619 12.2536 94.2143 12.1937C94.2667 12.1338 94.3191 12.0739 94.3715 12.014C94.4239 11.9467 94.4801 11.883 94.54 11.8231C94.5924 11.7557 94.641 11.7146 94.686 11.6996C94.7384 11.6771 94.7795 11.6285 94.8095 11.5536C94.9218 11.5012 95.0229 11.4188 95.1127 11.3065C95.1951 11.2017 95.3111 11.1268 95.4609 11.0819C95.6106 11.0669 95.7079 11.0669 95.7529 11.0819C95.7978 11.0969 95.8652 11.1493 95.955 11.2391C96.0299 11.2915 96.086 11.3664 96.1235 11.4637C96.1609 11.5611 96.2171 11.6359 96.2919 11.6884C96.4267 11.9579 96.5315 12.1226 96.6064 12.1825C96.6588 12.3023 96.67 12.4221 96.6401 12.5419L96.539 12.9013C96.5315 12.9911 96.524 13.066 96.5166 13.1259C96.5091 13.1783 96.5016 13.2195 96.4941 13.2494C96.4866 13.2794 96.4791 13.3093 96.4716 13.3393C96.4641 13.3692 96.4567 13.4029 96.4492 13.4403C96.3593 13.9644 96.2246 14.4736 96.0449 14.9677C96.0524 15.0725 96.0823 15.1811 96.1347 15.2934C96.1796 15.3832 96.1946 15.5143 96.1796 15.6865C96.2695 15.7015 96.3556 15.7015 96.4379 15.6865C96.5203 15.6715 96.5914 15.6565 96.6513 15.6416C96.9658 15.5143 97.2653 15.3496 97.5498 15.1474C97.7444 14.9977 97.9466 14.8517 98.1562 14.7094C98.3734 14.5597 98.5755 14.4137 98.7627 14.2714C98.8301 14.219 98.89 14.1628 98.9424 14.103C98.9948 14.0431 99.0547 13.9869 99.1221 13.9345C99.2718 13.8147 99.4178 13.7174 99.5601 13.6425C99.7023 13.5676 99.8483 13.4927 99.9981 13.4179C100.073 13.373 100.133 13.328 100.178 13.2831C100.223 13.2382 100.275 13.1858 100.335 13.1259C100.41 13.051 100.515 12.9724 100.649 12.89C100.784 12.8077 100.912 12.7365 101.031 12.6767C101.241 12.6692 101.349 12.7029 101.357 12.7777L101.391 12.9911C101.196 13.1259 101.013 13.2644 100.84 13.4066C100.668 13.5489 100.492 13.6949 100.313 13.8446C100.268 13.8746 100.226 13.9008 100.189 13.9233C100.152 13.9457 100.095 13.9719 100.021 14.0019C99.9606 14.0468 99.9195 14.088 99.897 14.1254C99.8745 14.1628 99.8259 14.204 99.751 14.2489C99.7061 14.2864 99.6612 14.3238 99.6162 14.3613C99.5713 14.3912 99.5264 14.4249 99.4815 14.4623C99.3916 14.5297 99.3093 14.6008 99.2344 14.6757C99.1296 14.7506 99.0322 14.8255 98.9424 14.9003C98.8525 14.9752 98.7702 15.0501 98.6953 15.1249C98.613 15.2073 98.5456 15.2897 98.4932 15.372C98.4482 15.4469 98.3734 15.5292 98.2685 15.6191C98.1937 15.649 98.13 15.6865 98.0776 15.7314L97.9092 15.8662C97.8792 15.956 97.8568 16.0346 97.8418 16.102C97.8343 16.1619 97.7894 16.233 97.707 16.3154C97.5872 16.4202 97.5161 16.4913 97.4936 16.5288C97.4712 16.5662 97.4375 16.6074 97.3926 16.6523C97.3626 16.6748 97.3102 16.701 97.2353 16.7309C97.2054 16.7384 97.1754 16.7496 97.1455 16.7646C97.1155 16.7796 97.0856 16.7946 97.0556 16.8095C96.9882 16.847 96.9209 16.8994 96.8535 16.9668C96.8235 16.9967 96.7898 17.0267 96.7524 17.0566C96.7225 17.0866 96.6888 17.1165 96.6513 17.1465C96.5914 17.1839 96.5353 17.2176 96.4829 17.2475C96.4305 17.2775 96.3855 17.3074 96.3481 17.3374C96.2882 17.3823 96.1796 17.4235 96.0224 17.4609C95.8652 17.5657 95.7529 17.6144 95.6855 17.6069C95.6406 17.5994 95.5657 17.6032 95.4609 17.6182C95.4234 17.6331 95.3897 17.6182 95.3598 17.5732C95.3298 17.5283 95.2887 17.5058 95.2363 17.5058C95.1389 17.416 95.0641 17.3786 95.0116 17.3935C94.9517 17.4085 94.8993 17.401 94.8544 17.3711C94.7047 17.1989 94.6298 17.0716 94.6298 16.9892C94.6298 16.9443 94.6261 16.8994 94.6186 16.8545C94.6186 16.8021 94.6148 16.7496 94.6073 16.6972C94.5774 16.4726 94.5474 16.2443 94.5175 16.0122C94.4875 15.7801 94.4651 15.5367 94.4501 15.2822C94.4501 15.1774 94.4613 15.08 94.4838 14.9902C94.5138 14.8779 94.5325 14.7805 94.54 14.6982C94.54 14.6607 94.5325 14.6046 94.5175 14.5297C94.5025 14.4548 94.495 14.4062 94.495 14.3837C94.51 14.2564 94.5325 14.1441 94.5624 14.0468C94.5924 13.957 94.5999 13.8521 94.5849 13.7323C94.4875 13.8446 94.4014 13.942 94.3266 14.0243C94.2517 14.0992 94.1881 14.1628 94.1357 14.2153C94.0832 14.2677 94.0308 14.3201 93.9784 14.3725C93.9335 14.4249 93.8886 14.4811 93.8437 14.5409C93.6116 14.6757 93.4169 14.8067 93.2597 14.934C93.0949 15.0688 92.8928 15.1774 92.6532 15.2597C92.5484 15.3645 92.4436 15.4656 92.3387 15.5629C92.2414 15.6528 92.1441 15.7389 92.0467 15.8212C91.9494 15.9036 91.8483 15.9934 91.7435 16.0908C91.6462 16.1806 91.5451 16.278 91.4403 16.3828C91.1932 16.7047 90.9237 16.9443 90.6317 17.1015C90.5269 17.1315 90.4445 17.1502 90.3846 17.1577C90.3247 17.1652 90.2648 17.1465 90.2049 17.1015C89.8904 16.9219 89.7033 16.6898 89.6434 16.4052C89.5835 16.1207 89.591 15.8063 89.6658 15.4619C89.5985 15.3196 89.6059 15.1175 89.6883 14.8554C89.7781 14.5859 89.7931 14.3912 89.7332 14.2714C89.7557 14.1591 89.7819 14.0468 89.8118 13.9345C89.8418 13.8147 89.8755 13.6949 89.9129 13.5751C89.9503 13.4553 89.9803 13.3393 90.0028 13.227C90.0327 13.1072 90.0552 12.9911 90.0701 12.8788C90.145 12.774 90.1562 12.6916 90.1038 12.6317C90.0514 12.5718 90.0028 12.5194 89.9578 12.4745C89.7033 12.6242 89.4599 12.8002 89.2278 13.0023C88.9957 13.2045 88.7599 13.4104 88.5203 13.62C88.4604 13.6724 88.4005 13.7249 88.3406 13.7773C88.2882 13.8222 88.2321 13.8708 88.1722 13.9233C88.1197 13.9757 88.0636 14.0281 88.0037 14.0805C87.9438 14.1254 87.8839 14.1741 87.824 14.2265L87.4646 14.5297C87.3373 14.6345 87.2325 14.7431 87.1502 14.8554C87.0528 14.9902 86.9742 15.08 86.9143 15.1249L86.7683 15.2372C86.7009 15.2747 86.641 15.3196 86.5886 15.372C86.5587 15.402 86.5138 15.4394 86.4539 15.4843C86.4089 15.5218 86.349 15.5555 86.2742 15.5854L86.072 15.664C85.9822 15.7239 85.8886 15.8025 85.7912 15.8999C85.6939 15.9972 85.6078 16.0833 85.5329 16.1582C85.473 16.2181 85.4057 16.278 85.3308 16.3379C85.2484 16.4052 85.1885 16.4651 85.1511 16.5175C85.0613 16.6448 84.9527 16.7796 84.8254 16.9219C84.773 16.9818 84.7168 17.0454 84.6569 17.1128C84.6045 17.1727 84.5521 17.2363 84.4997 17.3037C84.4922 17.3711 84.4511 17.4422 84.3762 17.5171L84.1628 17.7305C84.1328 17.7604 84.1029 17.7941 84.073 17.8315C84.043 17.8615 84.0093 17.8952 83.9719 17.9326C83.912 18 83.8409 18.0524 83.7585 18.0898L83.6013 18.1235C83.5189 18.1385 83.459 18.1572 83.4216 18.1797C83.3766 18.1947 83.3317 18.2096 83.2868 18.2246C83.2344 18.2471 83.182 18.2695 83.1296 18.292C83.0322 18.3369 82.9199 18.3519 82.7927 18.3369L82.5231 18.3032C82.4557 18.2957 82.3809 18.262 82.2985 18.2022C82.2985 18.0824 82.2611 18 82.1862 17.9551C82.2236 17.7529 82.2723 17.5732 82.3322 17.416C82.3921 17.2513 82.4408 17.0791 82.4782 16.8994C82.5905 16.7422 82.6766 16.5737 82.7365 16.394C82.7964 16.2143 82.875 16.0309 82.9723 15.8437C83.0397 15.6565 83.1183 15.4619 83.2082 15.2597L83.444 14.7206C83.474 14.6308 83.5002 14.5447 83.5226 14.4623C83.5526 14.38 83.5788 14.3014 83.6013 14.2265C83.6462 14.0693 83.7061 13.9345 83.781 13.8222C83.8783 13.665 83.9307 13.5526 83.9382 13.4853C84.1029 13.2906 84.1853 13.0884 84.1853 12.8788C84.2676 12.789 84.3275 12.6617 84.3649 12.497C84.4024 12.3397 84.4473 12.1975 84.4997 12.0702C84.5297 12.0103 84.5559 11.9579 84.5783 11.913C84.6008 11.868 84.6195 11.8081 84.6345 11.7333C84.6495 11.6359 84.6532 11.5648 84.6457 11.5199C84.6382 11.46 84.6569 11.3889 84.7019 11.3065C84.7318 11.2691 84.7618 11.2354 84.7917 11.2054C84.8217 11.1755 84.8516 11.1455 84.8816 11.1156C84.9115 11.0856 84.9415 11.0557 84.9714 11.0257C85.0014 10.9958 85.0313 10.9621 85.0613 10.9247C85.1286 10.9172 85.181 10.8797 85.2185 10.8124C85.2559 10.7525 85.3008 10.7075 85.3533 10.6776C85.518 10.6252 85.6116 10.5877 85.634 10.5653C85.664 10.5353 85.6827 10.5204 85.6902 10.5204L86.0271 10.3519C86.0496 10.3369 86.072 10.3257 86.0945 10.3182C86.1244 10.3032 86.1544 10.2883 86.1843 10.2733C86.2143 10.2583 86.2405 10.2471 86.2629 10.2396C86.2854 10.2321 86.3041 10.2246 86.3191 10.2171C86.3341 10.2096 86.3528 10.2022 86.3752 10.1947C86.3977 10.1872 86.4239 10.176 86.4539 10.161C86.4913 10.1235 86.5512 10.0786 86.6335 10.0262C86.7159 9.9738 86.7758 9.92888 86.8132 9.89144C86.963 9.95134 87.0903 10.0449 87.1951 10.1722C87.2999 10.2995 87.3299 10.4679 87.2849 10.6776C87.27 10.7525 87.2475 10.8236 87.2175 10.891C87.1876 10.9584 87.1576 11.022 87.1277 11.0819C87.1052 11.1343 87.0865 11.2054 87.0715 11.2953C87.0566 11.3851 87.0379 11.4488 87.0154 11.4862C86.9106 11.6734 86.8432 11.8119 86.8132 11.9017C86.7758 12.014 86.7384 12.1076 86.7009 12.1825C86.641 12.2798 86.5886 12.3772 86.5437 12.4745C86.4988 12.5943 86.4576 12.6916 86.4202 12.7665C86.3827 12.8414 86.3266 12.9162 86.2517 12.9911C86.1918 13.066 86.1469 13.1184 86.1169 13.1483C86.0645 13.2008 86.0196 13.2606 85.9822 13.328C85.9298 13.3954 85.8773 13.4665 85.8249 13.5414C85.7725 13.6163 85.7201 13.6949 85.6677 13.7773C85.5704 13.9345 85.4581 14.0842 85.3308 14.2265L85.0949 14.6757C85.0201 14.818 84.9415 14.9752 84.8591 15.1474ZM110.24 11.5087C110.315 11.5161 110.364 11.5461 110.386 11.5985C110.409 11.6434 110.45 11.6659 110.51 11.6659C110.54 11.8081 110.51 11.9092 110.42 11.9691C110.33 12.0215 110.3 12.1076 110.33 12.2274C110.196 12.3173 110.031 12.3734 109.836 12.3959C109.634 12.4183 109.484 12.497 109.387 12.6317C109.125 12.759 108.852 12.8376 108.567 12.8676C108.425 12.8825 108.275 12.905 108.118 12.935C107.968 12.9574 107.815 12.9836 107.657 13.0136C107.493 13.1259 107.392 13.1858 107.354 13.1933C107.302 13.2008 107.246 13.2232 107.186 13.2606C107.028 13.2008 106.871 13.1708 106.714 13.1708C106.557 13.1708 106.392 13.1483 106.22 13.1034C106.138 13.1334 106.051 13.1483 105.962 13.1483C105.872 13.1483 105.786 13.1633 105.703 13.1933C105.643 13.328 105.613 13.4628 105.613 13.5976C105.613 13.7398 105.591 13.8746 105.546 14.0019L105.411 14.2714L105.378 14.4848C105.363 14.5746 105.344 14.6458 105.321 14.6982C105.291 14.7431 105.258 14.7955 105.22 14.8554C105.183 14.9153 105.164 14.9827 105.164 15.0576C105.059 15.1923 104.984 15.3308 104.94 15.4731C104.895 15.6378 104.812 15.7688 104.693 15.8662C104.648 16.0234 104.576 16.1432 104.479 16.2256C104.382 16.3154 104.288 16.4202 104.198 16.54C104.034 16.7646 103.888 16.9593 103.76 17.124C103.633 17.2887 103.465 17.431 103.255 17.5508C103.18 17.6706 103.09 17.7529 102.985 17.7978C102.911 17.8727 102.851 17.9476 102.806 18.0225L102.357 18.292C102.177 18.4043 102.005 18.4792 101.84 18.5166C101.585 18.5765 101.338 18.569 101.099 18.4942C100.859 18.4193 100.634 18.3145 100.425 18.1797C100.283 18.1947 100.174 18.1685 100.099 18.1011C100.024 18.0412 99.9232 17.9925 99.7959 17.9551C99.6312 17.8053 99.4515 17.6706 99.2568 17.5508C99.0547 17.4235 98.9124 17.2588 98.8301 17.0566L98.729 16.5625C98.6991 16.4127 98.6654 16.263 98.6279 16.1132C98.598 15.986 98.5942 15.8437 98.6167 15.6865C98.6392 15.5517 98.6429 15.402 98.6279 15.2372C98.6279 15.1549 98.6279 15.08 98.6279 15.0126C98.6279 14.9378 98.6242 14.8741 98.6167 14.8217C98.6092 14.7094 98.6429 14.5709 98.7178 14.4062C98.7627 14.3088 98.8001 14.219 98.8301 14.1366C98.86 14.0543 98.8825 13.9832 98.8975 13.9233C98.9124 13.8634 98.9274 13.8072 98.9424 13.7548C98.9574 13.6949 98.9723 13.6425 98.9873 13.5976C99.0098 13.5601 99.0322 13.5227 99.0547 13.4853C99.0772 13.4403 99.0996 13.3954 99.1221 13.3505C99.1445 13.3056 99.167 13.2644 99.1895 13.227C99.2194 13.182 99.2494 13.1409 99.2793 13.1034C99.3692 12.9687 99.474 12.8339 99.5938 12.6991C99.7136 12.5643 99.8334 12.4371 99.9531 12.3173C100.036 12.205 100.118 12.1076 100.2 12.0253C100.335 11.8905 100.462 11.7782 100.582 11.6884C100.702 11.5985 100.837 11.4787 100.986 11.329C101.016 11.284 101.054 11.2466 101.099 11.2167L101.233 11.1268C101.383 11.037 101.522 10.9621 101.649 10.9022C101.776 10.8423 101.922 10.7749 102.087 10.7001C102.229 10.6327 102.345 10.5915 102.435 10.5765C102.495 10.5615 102.555 10.5503 102.615 10.5428C102.682 10.5278 102.753 10.5129 102.828 10.4979H103.098C103.18 10.4979 103.255 10.4829 103.322 10.453C103.277 10.3332 103.33 10.2508 103.48 10.2059C103.629 10.161 103.742 10.146 103.817 10.161C103.966 10.161 104.086 10.1947 104.176 10.2621C104.266 10.3294 104.348 10.4081 104.423 10.4979C104.573 10.6027 104.737 10.7599 104.917 10.9696C104.955 11.007 104.992 11.0295 105.029 11.037C105.067 11.0445 105.104 11.0669 105.142 11.1044C105.202 11.1942 105.243 11.2766 105.265 11.3514C105.288 11.4413 105.336 11.5236 105.411 11.5985C105.456 11.6285 105.501 11.6659 105.546 11.7108C105.591 11.7557 105.621 11.8156 105.636 11.8905C105.793 11.9504 105.935 11.9953 106.063 12.0253C106.13 12.0552 106.209 12.0627 106.298 12.0477C106.381 12.0328 106.474 12.0328 106.579 12.0477C106.647 12.0552 106.714 12.0739 106.781 12.1039C106.841 12.1263 106.909 12.1376 106.984 12.1376C107.096 12.1301 107.219 12.1001 107.354 12.0477C107.481 12.0028 107.627 11.9953 107.792 12.0253C108.017 12.0777 108.253 12.0552 108.5 11.9579C108.747 11.8531 108.998 11.7857 109.252 11.7557C109.327 11.7557 109.379 11.752 109.409 11.7445C109.439 11.737 109.492 11.7333 109.567 11.7333C109.641 11.6734 109.739 11.6285 109.859 11.5985C109.978 11.5686 110.106 11.5386 110.24 11.5087ZM103.817 12.1825C103.667 12.0477 103.581 11.9616 103.558 11.9242C103.528 11.8793 103.502 11.8531 103.48 11.8456C103.412 11.7782 103.337 11.7408 103.255 11.7333C103.21 11.7258 103.165 11.7183 103.12 11.7108C103.083 11.7033 103.045 11.6958 103.008 11.6884C102.768 11.6434 102.57 11.6696 102.413 11.767C102.338 11.8194 102.259 11.868 102.177 11.913C102.102 11.9579 102.027 12.0028 101.952 12.0477C101.713 12.1975 101.503 12.3847 101.323 12.6093C101.278 12.6841 101.23 12.7665 101.177 12.8563C101.125 12.9462 101.084 13.0435 101.054 13.1483C100.994 13.2681 100.941 13.3767 100.897 13.474C100.852 13.5714 100.814 13.6874 100.784 13.8222C100.709 13.9644 100.664 14.088 100.649 14.1928C100.642 14.2452 100.634 14.2939 100.627 14.3388C100.62 14.3762 100.612 14.4137 100.605 14.4511C100.597 14.526 100.586 14.6046 100.571 14.6869C100.556 14.7618 100.541 14.8404 100.526 14.9228C100.488 15.11 100.47 15.2522 100.47 15.3496C100.485 15.3945 100.507 15.4544 100.537 15.5292C100.567 15.6041 100.597 15.6565 100.627 15.6865C100.657 15.7613 100.691 15.8437 100.728 15.9336C100.766 16.0234 100.799 16.0908 100.829 16.1357C100.912 16.2405 101.009 16.3079 101.121 16.3379C101.181 16.3528 101.245 16.3715 101.312 16.394C101.379 16.409 101.451 16.4277 101.525 16.4502C101.69 16.54 101.802 16.5774 101.862 16.5625C101.937 16.5475 101.982 16.54 101.997 16.54C102.199 16.5026 102.371 16.4202 102.514 16.2929C102.641 16.1731 102.791 16.0683 102.963 15.9785C103.023 15.8886 103.083 15.795 103.143 15.6977C103.21 15.6004 103.281 15.503 103.356 15.4057C103.431 15.3009 103.498 15.1998 103.558 15.1025C103.626 14.9977 103.689 14.8928 103.749 14.788C103.787 14.7431 103.824 14.6757 103.861 14.5859C103.876 14.5484 103.891 14.5147 103.906 14.4848C103.921 14.4474 103.936 14.4137 103.951 14.3837C104.056 14.2564 104.105 14.1891 104.097 14.1816C104.09 14.1741 104.094 14.1516 104.109 14.1142C104.206 13.8896 104.251 13.7174 104.243 13.5976C104.236 13.4778 104.236 13.358 104.243 13.2382C104.206 13.1558 104.172 13.0697 104.142 12.9799C104.112 12.89 104.082 12.7964 104.052 12.6991C103.992 12.497 103.914 12.3248 103.817 12.1825ZM115.362 16.0683C115.466 16.0683 115.541 16.0758 115.586 16.0908C115.631 16.1058 115.669 16.1132 115.699 16.1132C115.848 16.1132 116.039 16.0084 116.271 15.7988C116.511 15.5817 116.702 15.4169 116.844 15.3046C117.151 15.2372 117.398 15.0426 117.585 14.7206C117.78 14.3912 117.997 14.1067 118.237 13.8671C118.544 13.5601 118.791 13.2869 118.978 13.0473C119.173 12.8002 119.337 12.6767 119.472 12.6767C119.592 12.6767 119.678 12.7328 119.73 12.8451C119.798 12.9799 119.846 13.0735 119.876 13.1259C119.846 13.1558 119.831 13.2008 119.831 13.2606C119.831 13.328 119.817 13.3804 119.787 13.4179C119.757 13.4628 119.712 13.5077 119.652 13.5526C119.592 13.5976 119.539 13.65 119.495 13.7099L119.27 13.9794C119.075 14.1741 118.892 14.4212 118.72 14.7206C118.547 15.0201 118.375 15.3046 118.203 15.5742C118.038 15.8362 117.862 16.0234 117.675 16.1357C117.278 16.3903 116.96 16.6598 116.721 16.9443C116.488 17.2213 116.23 17.446 115.946 17.6182C115.916 17.6182 115.897 17.6144 115.89 17.6069C115.882 17.5994 115.871 17.5957 115.856 17.5957C115.788 17.5957 115.74 17.6107 115.71 17.6406C115.68 17.6706 115.639 17.6855 115.586 17.6855C115.309 17.5807 115.088 17.4647 114.924 17.3374C114.759 17.2026 114.546 16.9144 114.284 16.4726C114.216 16.3603 114.156 16.2368 114.104 16.102C114.051 15.9523 113.992 15.8212 113.924 15.7089L113.621 15.1586C113.539 15.0089 113.497 14.7581 113.497 14.4062C113.497 14.2564 113.512 14.0318 113.542 13.7323C113.572 13.4329 113.602 13.1933 113.632 13.0136C113.4 13.2457 113.187 13.5339 112.992 13.8783C112.895 14.0431 112.801 14.204 112.711 14.3613C112.621 14.5185 112.532 14.6682 112.442 14.8105C112.202 15.1774 111.944 15.5405 111.667 15.8999C111.397 16.2443 111.259 16.5101 111.251 16.6972C111.161 16.7871 111.064 16.9181 110.959 17.0903C110.854 17.2625 110.772 17.4123 110.712 17.5395C110.66 17.6593 110.66 17.693 110.712 17.6406C110.503 17.985 110.199 18.2284 109.802 18.3706C109.406 18.5129 109.035 18.584 108.691 18.584C108.623 18.5765 108.556 18.569 108.488 18.5615C108.421 18.554 108.354 18.5466 108.286 18.5391C108.159 18.5316 108.032 18.4792 107.904 18.3818L107.568 18.1348C107.328 18.015 107.163 17.8278 107.073 17.5732C106.984 17.3187 106.939 17.0416 106.939 16.7422C107.126 16.2705 107.234 15.8475 107.264 15.4731C107.294 15.1062 107.38 14.7431 107.523 14.3837C107.732 13.8297 108.028 13.3355 108.41 12.9013C108.792 12.467 109.192 12.0702 109.612 11.7108C109.948 11.4263 110.334 11.1156 110.768 10.7787C111.21 10.4343 111.528 10.146 111.723 9.9139C111.963 9.87647 112.165 9.80534 112.329 9.70052C112.502 9.58821 112.674 9.48339 112.846 9.38606C113.018 9.28873 113.22 9.24006 113.452 9.24006C113.797 9.24006 113.999 9.29996 114.059 9.41975C114.119 9.53955 114.209 9.70426 114.328 9.9139C114.426 9.66683 114.501 9.41601 114.553 9.16145C114.583 9.03416 114.617 8.91063 114.654 8.79083C114.699 8.67104 114.748 8.55873 114.8 8.45391C114.89 7.98971 115.043 7.49556 115.261 6.97146C115.478 6.44736 115.695 5.96444 115.912 5.5227C116.092 5.16332 116.268 4.82266 116.44 4.50071C116.62 4.17128 116.739 3.96164 116.799 3.87179C117.031 3.51241 117.282 3.20918 117.552 2.9621C117.814 2.71503 118.042 2.44924 118.237 2.16473C118.386 1.98503 118.532 1.77914 118.675 1.54704C118.824 1.29247 118.941 1.13899 119.023 1.08658C119.442 1.19889 119.663 1.3636 119.685 1.58073C119.708 1.79786 119.719 2.04493 119.719 2.32195C119.719 2.56154 119.697 2.80113 119.652 3.04072L118.888 4.63548C118.678 5.02481 118.48 5.42163 118.293 5.82593C118.106 6.23024 117.93 6.64203 117.765 7.06131C117.488 7.60038 117.185 8.07207 116.855 8.47637C116.691 8.67853 116.533 8.88817 116.384 9.10529C116.241 9.32242 116.103 9.54703 115.968 9.77913C115.916 9.93636 115.837 10.0898 115.732 10.2396C115.68 10.3145 115.631 10.3893 115.586 10.4642C115.541 10.5316 115.496 10.6027 115.452 10.6776L115.047 11.6434C114.957 11.7632 114.912 11.8755 114.912 11.9803C114.942 12.0477 114.957 12.1076 114.957 12.16V12.2723C114.957 12.3397 114.957 12.4071 114.957 12.4745C114.957 12.5419 114.954 12.6093 114.946 12.6767C114.939 12.744 114.935 12.8152 114.935 12.89C114.935 12.9574 114.935 13.0285 114.935 13.1034C114.935 13.8671 114.965 14.6158 115.025 15.3496C114.995 15.402 114.98 15.4394 114.98 15.4619C114.98 15.5667 115.036 15.6752 115.148 15.7876C115.261 15.8924 115.332 15.986 115.362 16.0683ZM113.205 10.6102L112.644 10.9696C112.532 11.007 112.382 11.1156 112.195 11.2953L111.723 11.7333L111.251 12.16C111.146 12.3547 111.004 12.5194 110.824 12.6542C110.645 12.789 110.495 12.9387 110.375 13.1034C110.211 13.3131 110.05 13.5601 109.892 13.8446C109.735 14.1292 109.664 14.3687 109.679 14.5634C109.641 14.6982 109.6 14.8255 109.555 14.9453C109.518 15.0576 109.477 15.1624 109.432 15.2597C109.342 15.4469 109.297 15.664 109.297 15.9111C109.297 16.1058 109.361 16.2068 109.488 16.2143C109.615 16.2218 109.709 16.2256 109.769 16.2256C109.993 16.0758 110.229 15.8587 110.476 15.5742C110.731 15.2822 110.959 14.9827 111.161 14.6757C111.371 14.3687 111.513 14.1142 111.588 13.912C111.753 13.6275 111.94 13.3243 112.15 13.0023C112.359 12.6804 112.591 12.3921 112.846 12.1376L113.43 11.1942C113.445 11.1568 113.46 11.1231 113.475 11.0931C113.49 11.0557 113.505 11.022 113.52 10.992C113.55 10.9396 113.565 10.8723 113.565 10.7899C113.565 10.6926 113.535 10.6027 113.475 10.5204C113.415 10.5204 113.363 10.5316 113.318 10.5541C113.273 10.5765 113.235 10.5952 113.205 10.6102Z" fill="white"/>
</svg>
