<svg width="202" height="25" viewBox="0 0 202 25" fill="none" xmlns="http://www.w3.org/2000/svg">
<path d="M38.5802 10.3388C38.6415 11.7648 38.6339 13.2138 38.5572 14.6859L38.4882 22.023C38.2582 21.9923 38.0052 21.977 37.7292 21.977C37.4532 21.977 37.1772 21.977 36.9012 21.977C36.6252 21.977 36.3568 21.9847 36.0962 22C35.8508 22 35.6362 22 35.4521 22C35.4215 21.3407 35.3985 20.6276 35.3831 19.861C35.3831 19.0943 35.3755 18.3123 35.3601 17.5149C35.3601 16.7176 35.3371 15.9355 35.2911 15.1689C35.2605 14.4022 35.2068 13.6968 35.1301 13.0528C35.0228 13.2215 34.9001 13.4898 34.7621 13.8578C34.6241 14.2105 34.4861 14.5785 34.3481 14.9619C34.2101 15.3452 34.0798 15.6825 33.9571 15.9739C33.8344 16.2652 33.7424 16.4109 33.6811 16.4109C33.6044 16.4109 33.5124 16.3342 33.4051 16.1809C33.3131 16.0122 33.2134 15.8052 33.1061 15.5599C33.0141 15.3145 32.9144 15.0539 32.8071 14.7779C32.6998 14.5019 32.6078 14.2488 32.5311 14.0188C32.4544 13.7888 32.3854 13.5972 32.3241 13.4438C32.2781 13.2905 32.2551 13.2138 32.2551 13.2138C32.1324 14.6552 32.0864 16.1119 32.1171 17.5839C32.1631 19.0559 32.2321 20.505 32.3241 21.931C31.8334 22.0077 31.2967 22.0383 30.7141 22.023C30.1314 22.0077 29.5947 22 29.104 22C29.0734 22 29.0504 21.977 29.035 21.931C29.0197 21.8697 29.0044 21.724 28.989 21.494C28.9737 21.264 28.9584 20.919 28.943 20.459C28.943 19.9836 28.943 19.3626 28.943 18.5959C28.943 17.8293 28.943 16.8786 28.943 15.7439C28.9584 14.6092 28.966 13.2598 28.966 11.6958C28.9814 10.1318 28.9967 8.30706 29.012 6.22169C29.2114 6.16035 29.4414 6.12202 29.702 6.10668C29.9627 6.09135 30.231 6.09135 30.507 6.10668C30.7831 6.10668 31.0591 6.11435 31.3351 6.12968C31.6111 6.12968 31.8794 6.12202 32.1401 6.10668H32.1631C32.3011 6.26002 32.4391 6.49769 32.5771 6.8197C32.7151 7.12637 32.8454 7.45604 32.9681 7.80872C33.0908 8.16139 33.2058 8.49873 33.3131 8.82074C33.4358 9.14274 33.5584 9.39575 33.6811 9.57975C33.7271 9.62575 33.7731 9.64876 33.8191 9.64876C33.8651 9.66409 33.9341 9.51842 34.0261 9.21175C34.1335 8.90507 34.2408 8.5524 34.3481 8.15372C34.4708 7.73972 34.6011 7.33338 34.7391 6.9347C34.8925 6.53603 35.0381 6.24469 35.1761 6.06068C35.2835 6.07602 35.4751 6.07602 35.7512 6.06068C36.0425 6.04535 36.3492 6.03002 36.6712 6.01468C37.0085 5.99935 37.3459 5.99168 37.6832 5.99168C38.0359 5.97635 38.3349 5.96868 38.5802 5.96868C38.5189 7.44071 38.5189 8.89741 38.5802 10.3388ZM48.6309 6.9807C49.0755 7.37938 49.3899 7.84705 49.5739 8.38373C49.6812 8.61373 49.7579 8.85141 49.8039 9.09674C49.8652 9.32675 49.9112 9.56442 49.9419 9.80976C49.9726 10.1931 49.9879 10.5764 49.9879 10.9598C50.0032 11.3278 50.0032 11.7035 49.9879 12.0868C49.9419 12.8995 49.9266 13.6892 49.9419 14.4559C49.9572 15.2225 49.9342 16.0045 49.8729 16.8019L49.8039 17.5609C49.7732 18.0976 49.6889 18.6419 49.5509 19.1939C49.4129 19.7306 49.2059 20.2213 48.9299 20.666C48.6692 21.034 48.3242 21.333 47.8949 21.563C47.4808 21.7777 47.0362 21.9463 46.5608 22.069C46.1315 22.1917 45.6945 22.2683 45.2498 22.299C44.8205 22.3297 44.3835 22.3297 43.9388 22.299C43.6168 22.2683 43.3024 22.2223 42.9958 22.161C42.7044 22.115 42.4207 22.0307 42.1447 21.908C41.8841 21.7853 41.6464 21.632 41.4317 21.448C41.2171 21.2487 41.0407 20.9956 40.9027 20.689C40.688 20.3056 40.5424 19.8993 40.4657 19.4699C40.4044 19.0253 40.366 18.5806 40.3507 18.1359C40.3047 16.9399 40.251 15.7439 40.1897 14.5479C40.1437 13.3365 40.159 12.1251 40.2357 10.9138C40.251 10.2238 40.3354 9.53375 40.4887 8.84374C40.6574 8.13839 40.9794 7.51738 41.4547 6.9807C41.6081 6.82736 41.7844 6.68936 41.9837 6.56669C42.4897 6.32136 43.0341 6.14502 43.6168 6.03768C44.2148 5.91501 44.8051 5.86901 45.3878 5.89968C45.9858 5.93035 46.5608 6.03768 47.1128 6.22169C47.6802 6.39036 48.1862 6.64336 48.6309 6.9807ZM47.1128 15.0999V13.9958L47.0668 12.4318C47.0668 12.4165 47.0515 12.2631 47.0208 11.9718C47.0055 11.6651 46.9902 11.3815 46.9748 11.1208C46.9442 10.6914 46.8215 10.3004 46.6068 9.94776C46.4075 9.59509 46.1315 9.33441 45.7788 9.16574C45.4721 9.04308 45.1578 9.02008 44.8358 9.09674C44.5138 9.17341 44.2301 9.30375 43.9848 9.48775C43.4481 9.90176 43.0878 10.4308 42.9038 11.0748C42.7811 11.6575 42.7044 12.2708 42.6738 12.9148C42.6584 13.5588 42.6661 14.2028 42.6968 14.8469C42.7734 15.3835 42.8271 15.9355 42.8578 16.5029C42.8884 17.0549 42.9804 17.5839 43.1338 18.0899C43.2871 18.3966 43.5094 18.6343 43.8008 18.8029C44.0921 18.9716 44.4065 19.0713 44.7438 19.1019C45.0811 19.1173 45.4185 19.0713 45.7558 18.9639C46.0932 18.8413 46.3768 18.6496 46.6068 18.3889C46.7448 18.2049 46.8445 18.0593 46.9058 17.9519C46.9672 17.8293 47.0055 17.6989 47.0208 17.5609C47.0362 17.4229 47.0362 17.2619 47.0208 17.0779C47.0208 16.8786 47.0362 16.6179 47.0668 16.2959C47.0822 15.9892 47.0898 15.7209 47.0898 15.4909C47.1052 15.2609 47.1128 15.1305 47.1128 15.0999ZM58.5762 6.61269C59.0362 6.96537 59.4042 7.36404 59.6803 7.80872C60.0176 8.33006 60.2936 8.87441 60.5083 9.44175C60.7383 9.99376 60.9223 10.5764 61.0603 11.1898C61.1369 11.4351 61.1829 11.6805 61.1983 11.9258C61.229 12.1558 61.252 12.3935 61.2673 12.6388C61.2366 13.3595 61.2059 14.0878 61.1753 14.8239C61.1599 15.5445 61.0833 16.2576 60.9453 16.9629C60.9453 16.9782 60.9376 16.9859 60.9223 16.9859C60.9223 16.9859 60.9223 16.9936 60.9223 17.0089C60.6156 17.9136 60.1939 18.7723 59.6573 19.585C59.1359 20.3976 58.5839 21.1643 58.0012 21.885C56.9892 21.9157 55.9695 21.9387 54.9422 21.954C53.9148 21.954 52.9181 21.954 51.9521 21.954C51.9521 21.954 51.9444 21.9617 51.9291 21.977C51.7604 20.7656 51.6531 19.516 51.6071 18.2279C51.5611 16.9246 51.5381 15.6059 51.5381 14.2718C51.5381 12.9378 51.5458 11.5961 51.5611 10.2468C51.5918 8.88207 51.5918 7.53271 51.5611 6.19869C51.5764 6.18335 51.5841 6.16802 51.5841 6.15269C51.5994 6.13735 51.6148 6.12202 51.6301 6.10668C52.0594 5.99935 52.5041 5.93035 52.9641 5.89968C53.4395 5.85368 53.9148 5.83835 54.3901 5.85368C54.8655 5.85368 55.3332 5.86135 55.7932 5.87668C56.2685 5.89201 56.7285 5.89201 57.1732 5.87668C57.6639 5.99935 58.1316 6.24469 58.5762 6.61269ZM57.2422 16.5719C57.3649 16.4339 57.4722 16.2959 57.5642 16.1579C57.8249 15.7592 58.0089 15.3222 58.1162 14.8469C58.2389 14.3715 58.2389 13.8502 58.1162 13.2828C58.0702 13.0528 58.0166 12.8152 57.9552 12.5698C57.8939 12.3091 57.8019 12.0638 57.6792 11.8338C57.5719 11.6038 57.4339 11.4045 57.2652 11.2358C57.0965 11.0518 56.8819 10.9138 56.6212 10.8218C56.3605 10.7911 56.0768 10.7758 55.7702 10.7758C55.4635 10.7604 55.1722 10.7834 54.8962 10.8448H54.8502H54.8272V10.9368C54.8578 11.3508 54.8732 11.7955 54.8732 12.2708C54.8732 12.7461 54.8655 13.2445 54.8502 13.7658C54.8348 14.2718 54.8272 14.7932 54.8272 15.3299C54.8272 15.8512 54.8425 16.3726 54.8732 16.8939C55.0418 17.0472 55.2718 17.1162 55.5632 17.1009C55.8698 17.0856 56.1612 17.0626 56.4372 17.0319C56.5139 17.0472 56.5829 17.0396 56.6442 17.0089C56.7055 16.9629 56.7745 16.9246 56.8512 16.8939C57.0045 16.8019 57.1349 16.6946 57.2422 16.5719ZM71.8112 6.40569C72.1025 6.43636 72.3402 6.50536 72.5242 6.61269C72.6162 8.5754 72.6469 10.5611 72.6162 12.5698C72.5855 14.5632 72.4629 16.5489 72.2482 18.5269C72.1255 19.539 71.7422 20.3976 71.0982 21.103C70.4542 21.8083 69.5802 22.2147 68.4761 22.322C67.8321 22.3833 67.1651 22.3527 66.4751 22.23C65.7851 22.1227 65.1564 21.9233 64.5891 21.632C64.037 21.3253 63.5694 20.9266 63.186 20.436C62.818 19.93 62.6187 19.3243 62.588 18.6189C62.588 16.5949 62.611 14.5555 62.657 12.5008C62.703 10.4461 62.7107 8.40673 62.68 6.38269L62.657 6.35969H62.68C62.91 6.35969 63.163 6.35202 63.439 6.33669C63.7304 6.32135 64.0217 6.31369 64.313 6.31369C64.6044 6.31369 64.8881 6.32902 65.1641 6.35969C65.4401 6.37502 65.6931 6.41336 65.9231 6.47469V6.49769C65.7544 10.2084 65.8234 13.9728 66.1301 17.7909C66.2374 18.1589 66.4291 18.4273 66.7051 18.5959C66.9964 18.7646 67.2954 18.8413 67.6021 18.8259C67.9088 18.8106 68.1925 18.7033 68.4531 18.5039C68.7138 18.3046 68.8825 18.0286 68.9591 17.6759C69.0358 15.8359 69.0741 13.9652 69.0741 12.0638C69.0895 10.1624 69.1201 8.32239 69.1661 6.54369C69.3655 6.52836 69.6185 6.50536 69.9252 6.47469C70.2472 6.42869 70.5692 6.39802 70.8912 6.38269C71.2132 6.36736 71.5199 6.37502 71.8112 6.40569ZM83.8377 19.493C83.8377 19.6463 83.8454 19.7843 83.8607 19.907C83.8914 20.459 83.9067 20.8806 83.9067 21.172C83.9067 21.448 83.8837 21.655 83.8377 21.793C83.8071 21.9157 83.7457 21.9847 83.6537 22C83.5617 22 83.4314 22 83.2627 22C83.0941 21.9847 82.8717 21.9847 82.5957 22C82.335 22.0153 81.8827 22.0307 81.2387 22.046C80.61 22.0613 79.736 22.069 78.6166 22.069C77.5126 22.069 76.0329 22.0537 74.1775 22.023V21.609C74.2236 20.459 74.2619 19.4239 74.2926 18.5039C74.3232 17.5686 74.3386 16.7022 74.3386 15.9049C74.3539 15.0922 74.3616 14.3102 74.3616 13.5588C74.3616 12.8075 74.3539 12.0408 74.3386 11.2588C74.3232 10.4768 74.3079 9.64875 74.2926 8.77474C74.2772 7.88539 74.2619 6.90403 74.2466 5.83068C74.3999 5.76934 74.6376 5.72334 74.9596 5.69268C75.2816 5.64668 75.6266 5.62368 75.9946 5.62368C76.3626 5.62368 76.7229 5.64668 77.0756 5.69268C77.4283 5.73868 77.712 5.80768 77.9266 5.89968C77.896 6.89637 77.8806 7.92372 77.8806 8.98174C77.896 10.0244 77.9113 11.0748 77.9266 12.1328C77.942 13.1908 77.9496 14.2488 77.9496 15.3069C77.965 16.3496 77.965 17.3616 77.9496 18.3429V18.3659C78.057 18.3353 78.2563 18.3276 78.5476 18.3429C78.8543 18.3429 79.207 18.3506 79.6057 18.3659C80.0043 18.3813 80.426 18.4043 80.8707 18.4349C81.3307 18.4503 81.76 18.4656 82.1587 18.4809C82.5727 18.4963 82.9331 18.5116 83.2397 18.5269C83.5617 18.5269 83.7841 18.5193 83.9067 18.5039C83.9067 18.6726 83.8991 18.8413 83.8837 19.0099C83.8684 19.1633 83.8531 19.3243 83.8377 19.493ZM92.0245 12.8688C92.1318 13.3135 92.2161 13.6662 92.2775 13.9268L94.0025 21.977V22C93.5425 22.092 93.0365 22.1227 92.4845 22.092C91.9325 22.0767 91.4111 22.0153 90.9204 21.908H90.8974C90.8054 21.6627 90.7134 21.3713 90.6214 21.034C90.5448 20.6966 90.4604 20.3516 90.3684 19.999C90.2918 19.6463 90.2074 19.3089 90.1154 18.9869C90.0234 18.6649 89.9238 18.3889 89.8164 18.1589C89.6171 18.1283 89.4637 18.1129 89.3564 18.1129C89.2491 18.1129 89.1494 18.1129 89.0574 18.1129C88.9807 18.1129 88.8887 18.1206 88.7814 18.1359C88.6894 18.1359 88.5591 18.1359 88.3904 18.1359C88.2831 18.3813 88.1911 18.6726 88.1144 19.0099C88.053 19.3319 87.984 19.677 87.9074 20.045C87.846 20.3976 87.777 20.7426 87.7004 21.08C87.6237 21.4173 87.5164 21.7163 87.3784 21.977C87.363 21.977 87.3477 21.9847 87.3324 22C87.3324 22 87.3247 22 87.3094 22C87.1867 22.0307 86.88 22.0307 86.3894 22C85.8987 21.9693 85.132 21.9617 84.0893 21.977C84.074 21.977 84.0586 21.9693 84.0433 21.954C84.074 21.8467 84.1276 21.5477 84.2043 21.057C84.281 20.5663 84.3883 19.93 84.5263 19.1479C84.6643 18.3659 84.8253 17.4689 85.0093 16.4569C85.2087 15.4295 85.4387 14.3408 85.6993 13.1908C85.96 12.0408 86.2437 10.8448 86.5504 9.60275C86.857 8.36073 87.1944 7.12637 87.5624 5.89968C87.6697 5.88435 87.7847 5.87668 87.9074 5.87668C88.03 5.87668 88.1911 5.87668 88.3904 5.87668C88.5897 5.87668 88.8427 5.87668 89.1494 5.87668C89.4714 5.86135 89.8854 5.83068 90.3914 5.78468C90.4374 5.98402 90.5064 6.29069 90.5984 6.7047C90.7058 7.10337 90.8131 7.56338 90.9204 8.08472C91.0431 8.59073 91.1658 9.13508 91.2884 9.71776C91.4264 10.3004 91.5568 10.8601 91.6795 11.3968C91.8021 11.9335 91.9171 12.4241 92.0245 12.8688ZM89.0574 15.4449C89.3487 15.4295 89.6401 15.4219 89.9314 15.4219C89.7781 14.1032 89.6401 13.0758 89.5174 12.3398C89.4101 11.6038 89.3104 11.1055 89.2184 10.8448C89.1417 10.5841 89.0574 10.5304 88.9654 10.6838C88.8887 10.8218 88.8121 11.1131 88.7354 11.5578C88.6741 12.0025 88.5974 12.5621 88.5054 13.2368C88.4287 13.9115 88.3367 14.6399 88.2294 15.4219C88.4901 15.4372 88.7661 15.4449 89.0574 15.4449ZM104.941 20.114C105.279 20.6966 105.562 21.3023 105.792 21.931H105.815C105.279 21.931 104.681 21.954 104.021 22C103.362 22.0307 102.687 22.023 101.997 21.977H101.974C101.821 21.6243 101.629 21.2027 101.399 20.712C101.169 20.2213 100.916 19.7076 100.64 19.1709C100.364 18.6343 100.065 18.1053 99.7433 17.5839C99.4213 17.0626 99.0993 16.6026 98.7773 16.2039L98.7313 16.1349C98.6853 16.4876 98.6623 16.9246 98.6623 17.4459C98.6623 17.9519 98.6699 18.4809 98.6853 19.0329C98.7159 19.5696 98.7466 20.0833 98.7773 20.574C98.8079 21.0646 98.8309 21.4557 98.8463 21.747C98.5856 21.8543 98.2406 21.9233 97.8112 21.954C97.3972 21.9847 96.9832 22 96.5692 22C96.1552 22.0153 95.7795 22.0153 95.4422 22C95.1202 21.9847 94.9208 21.9847 94.8442 22C94.8748 22 94.8978 21.793 94.9132 21.379C94.9285 20.9496 94.9362 20.39 94.9362 19.7C94.9362 19.0099 94.9362 18.2203 94.9362 17.3309C94.9362 16.4262 94.9285 15.4985 94.9132 14.5479C94.9132 13.5818 94.8978 12.6311 94.8672 11.6958C94.8518 10.7451 94.8365 9.87876 94.8212 9.09674C94.8058 8.29939 94.7828 7.62471 94.7522 7.0727C94.7368 6.50536 94.7138 6.12202 94.6832 5.92268C95.5419 5.80001 96.4849 5.68501 97.5122 5.57767C98.5396 5.47034 99.6129 5.47801 100.732 5.60067C101.637 5.64667 102.45 5.90735 103.17 6.38269C103.891 6.85803 104.451 7.44838 104.849 8.15372C105.248 8.85907 105.455 9.64109 105.47 10.4998C105.501 11.3431 105.279 12.1635 104.803 12.9608C104.512 13.5128 104.121 13.9728 103.63 14.3408C103.155 14.7089 102.549 14.9159 101.813 14.9619H101.721H101.698V14.9849C102.02 15.5522 102.373 16.1195 102.756 16.6869C103.14 17.2389 103.515 17.7986 103.883 18.3659C104.251 18.9333 104.604 19.516 104.941 20.114ZM99.6283 8.79774C99.1069 8.81307 98.5779 8.92807 98.0412 9.14274C98.0566 9.34208 98.0642 9.57209 98.0642 9.83276C98.0796 10.0781 98.0872 10.3311 98.0872 10.5918C98.0872 10.8524 98.0872 11.1055 98.0872 11.3508C98.1026 11.5961 98.1256 11.8031 98.1562 11.9718H98.1792C98.5319 12.0025 98.9153 12.0255 99.3293 12.0408C99.7433 12.0561 100.134 12.0331 100.502 11.9718C100.794 11.9105 101.016 11.7648 101.169 11.5348C101.338 11.2895 101.438 11.0288 101.468 10.7528C101.499 10.4614 101.468 10.1778 101.376 9.90176C101.284 9.61042 101.131 9.38042 100.916 9.21175C100.579 8.90507 100.15 8.76707 99.6283 8.79774ZM114.82 5.78468C116.491 5.76934 118.116 5.84601 119.696 6.01468C119.726 6.52069 119.734 7.10337 119.719 7.76272C119.719 8.42206 119.68 9.02774 119.604 9.57975C119.312 9.51842 118.952 9.49542 118.523 9.51075C118.093 9.52608 117.518 9.54909 116.798 9.57975H116.752H116.729C116.729 9.59509 116.721 9.61042 116.706 9.62575C116.706 9.62575 116.706 9.63342 116.706 9.64876C116.69 9.72542 116.675 9.84809 116.66 10.0168C116.66 10.1701 116.66 10.4231 116.66 10.7758C116.66 11.1131 116.66 11.5655 116.66 12.1328C116.675 12.6848 116.69 13.4055 116.706 14.2948C116.721 15.1689 116.736 16.2269 116.752 17.4689C116.767 18.6956 116.79 20.1446 116.821 21.816V21.839V21.862C116.545 21.908 116.238 21.9387 115.901 21.954C115.579 21.954 115.249 21.954 114.912 21.954C114.59 21.954 114.268 21.954 113.946 21.954C113.624 21.954 113.325 21.977 113.048 22.023C113.033 21.9617 113.033 21.6857 113.048 21.195C113.064 20.7043 113.071 19.976 113.071 19.0099C113.087 18.0286 113.079 16.7789 113.048 15.2609C113.033 13.7428 112.979 11.9105 112.887 9.76376L112.864 9.74076C112.68 9.64875 112.45 9.59509 112.174 9.57975C111.898 9.54909 111.622 9.53375 111.346 9.53375C111.07 9.51842 110.817 9.51075 110.587 9.51075C110.357 9.51075 110.196 9.49542 110.104 9.46475C110.074 9.40342 110.043 9.25008 110.012 9.00474C109.997 8.7594 109.982 8.46806 109.966 8.13072C109.966 7.77805 109.966 7.40238 109.966 7.0037C109.966 6.60503 109.982 6.22169 110.012 5.85368C110.012 5.83835 110.005 5.83068 109.989 5.83068C109.989 5.83068 109.989 5.82301 109.989 5.80768C111.553 5.79234 113.163 5.78468 114.82 5.78468ZM129.341 5.73868C129.632 5.73868 129.893 5.74634 130.123 5.76168L130.744 21.862C130.483 21.908 130.2 21.9387 129.893 21.954C129.602 21.9693 129.31 21.977 129.019 21.977C128.743 21.977 128.467 21.977 128.191 21.977C127.93 21.977 127.708 21.9847 127.524 22H127.501C127.424 21.494 127.371 20.9726 127.34 20.436C127.325 19.884 127.309 19.3396 127.294 18.8029C127.294 18.2663 127.286 17.7296 127.271 17.1929C127.256 16.6562 127.217 16.1426 127.156 15.6519L127.133 15.6289C126.688 15.5522 126.244 15.5139 125.799 15.5139C125.354 15.5139 124.91 15.5675 124.465 15.6749C124.419 16.2116 124.396 16.7406 124.396 17.2619C124.411 17.7832 124.427 18.3046 124.442 18.8259C124.457 19.3473 124.457 19.861 124.442 20.367C124.442 20.8576 124.404 21.3483 124.327 21.839C124.143 21.9463 123.898 22 123.591 22C123.284 22 122.978 21.9847 122.671 21.954C122.364 21.9233 122.073 21.9003 121.797 21.885C121.536 21.8697 121.337 21.9003 121.199 21.977C121.168 21.5477 121.13 20.965 121.084 20.229C121.053 19.4776 121.023 18.6419 120.992 17.7219C120.961 16.7866 120.931 15.7975 120.9 14.7549C120.885 13.7122 120.869 12.6695 120.854 11.6268C120.839 10.5688 120.831 9.55675 120.831 8.59073C120.846 7.60938 120.862 6.7277 120.877 5.94568V5.92268H120.9H120.946C121.176 5.96868 121.414 5.98402 121.659 5.96868C121.92 5.95335 122.173 5.93801 122.418 5.92268C122.679 5.90735 122.932 5.89968 123.177 5.89968C123.422 5.89968 123.652 5.93035 123.867 5.99168C124.005 7.0497 124.074 8.07706 124.074 9.07374C124.074 10.0704 124.166 11.0594 124.35 12.0408H124.373C124.756 12.1328 125.17 12.1635 125.615 12.1328C126.06 12.0868 126.474 12.0485 126.857 12.0178H126.88C126.972 10.9598 127.018 9.97076 127.018 9.05074C127.033 8.13072 127.018 7.1187 126.972 6.01468C127.156 5.95335 127.378 5.89968 127.639 5.85368C127.915 5.80768 128.199 5.77701 128.49 5.76168C128.781 5.73101 129.065 5.72334 129.341 5.73868ZM140.543 6.9807C140.988 7.37938 141.302 7.84705 141.486 8.38373C141.593 8.61373 141.67 8.85141 141.716 9.09674C141.777 9.32675 141.823 9.56442 141.854 9.80976C141.885 10.1931 141.9 10.5764 141.9 10.9598C141.915 11.3278 141.915 11.7035 141.9 12.0868C141.854 12.8995 141.839 13.6892 141.854 14.4559C141.869 15.2225 141.846 16.0045 141.785 16.8019L141.716 17.5609C141.685 18.0976 141.601 18.6419 141.463 19.1939C141.325 19.7306 141.118 20.2213 140.842 20.666C140.581 21.034 140.236 21.333 139.807 21.563C139.393 21.7777 138.948 21.9463 138.473 22.069C138.043 22.1917 137.606 22.2683 137.162 22.299C136.732 22.3297 136.295 22.3297 135.851 22.299C135.529 22.2683 135.214 22.2223 134.908 22.161C134.616 22.115 134.333 22.0307 134.057 21.908C133.796 21.7853 133.558 21.632 133.344 21.448C133.129 21.2487 132.953 20.9956 132.815 20.689C132.6 20.3056 132.454 19.8993 132.378 19.4699C132.316 19.0253 132.278 18.5806 132.263 18.1359C132.217 16.9399 132.163 15.7439 132.102 14.5479C132.056 13.3365 132.071 12.1251 132.148 10.9138C132.163 10.2238 132.247 9.53375 132.401 8.84374C132.569 8.13839 132.891 7.51738 133.367 6.9807C133.52 6.82736 133.696 6.68936 133.896 6.56669C134.402 6.32136 134.946 6.14502 135.529 6.03768C136.127 5.91501 136.717 5.86901 137.3 5.89968C137.898 5.93035 138.473 6.03768 139.025 6.22169C139.592 6.39036 140.098 6.64336 140.543 6.9807ZM139.025 15.0999V13.9958L138.979 12.4318C138.979 12.4165 138.963 12.2631 138.933 11.9718C138.917 11.6651 138.902 11.3815 138.887 11.1208C138.856 10.6914 138.733 10.3004 138.519 9.94776C138.319 9.59509 138.043 9.33441 137.691 9.16574C137.384 9.04308 137.07 9.02008 136.748 9.09674C136.426 9.17341 136.142 9.30375 135.897 9.48775C135.36 9.90176 135 10.4308 134.816 11.0748C134.693 11.6575 134.616 12.2708 134.586 12.9148C134.57 13.5588 134.578 14.2028 134.609 14.8469C134.685 15.3835 134.739 15.9355 134.77 16.5029C134.8 17.0549 134.892 17.5839 135.046 18.0899C135.199 18.3966 135.421 18.6343 135.713 18.8029C136.004 18.9716 136.318 19.0713 136.656 19.1019C136.993 19.1173 137.33 19.0713 137.668 18.9639C138.005 18.8413 138.289 18.6496 138.519 18.3889C138.657 18.2049 138.756 18.0593 138.818 17.9519C138.879 17.8293 138.917 17.6989 138.933 17.5609C138.948 17.4229 138.948 17.2619 138.933 17.0779C138.933 16.8786 138.948 16.6179 138.979 16.2959C138.994 15.9892 139.002 15.7209 139.002 15.4909C139.017 15.2609 139.025 15.1305 139.025 15.0999ZM152.627 6.40569C152.919 6.43636 153.156 6.50536 153.34 6.61269C153.432 8.5754 153.463 10.5611 153.432 12.5698C153.402 14.5632 153.279 16.5489 153.064 18.5269C152.942 19.539 152.558 20.3976 151.914 21.103C151.27 21.8083 150.396 22.2147 149.292 22.322C148.648 22.3833 147.981 22.3527 147.291 22.23C146.601 22.1227 145.972 21.9233 145.405 21.632C144.853 21.3253 144.385 20.9266 144.002 20.436C143.634 19.93 143.435 19.3243 143.404 18.6189C143.404 16.5949 143.427 14.5555 143.473 12.5008C143.519 10.4461 143.527 8.40673 143.496 6.38269L143.473 6.35969H143.496C143.726 6.35969 143.979 6.35202 144.255 6.33669C144.546 6.32135 144.838 6.31369 145.129 6.31369C145.42 6.31369 145.704 6.32902 145.98 6.35969C146.256 6.37502 146.509 6.41336 146.739 6.47469V6.49769C146.57 10.2084 146.639 13.9728 146.946 17.7909C147.053 18.1589 147.245 18.4273 147.521 18.5959C147.812 18.7646 148.111 18.8413 148.418 18.8259C148.725 18.8106 149.009 18.7033 149.269 18.5039C149.53 18.3046 149.699 18.0286 149.775 17.6759C149.852 15.8359 149.89 13.9652 149.89 12.0638C149.906 10.1624 149.936 8.32239 149.982 6.54369C150.182 6.52836 150.435 6.50536 150.741 6.47469C151.063 6.42869 151.385 6.39802 151.707 6.38269C152.029 6.36736 152.336 6.37502 152.627 6.40569ZM159.709 14.0188C159.709 14.0188 159.724 14.0112 159.755 13.9958C159.954 13.8732 160.276 13.8042 160.721 13.7888C161.181 13.7582 161.664 13.7505 162.17 13.7658C162.676 13.7812 163.143 13.8118 163.573 13.8578C164.017 13.8885 164.316 13.9038 164.47 13.9038H164.516L164.539 13.9268C164.631 14.7395 164.692 15.6059 164.723 16.5259C164.753 17.4306 164.692 18.2969 164.539 19.1249C164.462 19.907 164.224 20.505 163.826 20.919C163.427 21.333 162.936 21.6473 162.354 21.862C161.97 21.9693 161.572 22.0613 161.158 22.138C160.744 22.23 160.322 22.2913 159.893 22.322C159.463 22.368 159.042 22.368 158.628 22.322C158.229 22.276 157.846 22.1763 157.478 22.023C156.864 21.7623 156.397 21.4097 156.075 20.965C155.753 20.5203 155.5 19.9683 155.316 19.3089C155.27 19.1403 155.216 18.9103 155.155 18.6189C155.109 18.3123 155.07 18.0056 155.04 17.6989C154.994 17.2082 154.955 16.7636 154.925 16.3649C154.894 15.9662 154.863 15.5752 154.833 15.1919C154.817 14.7932 154.802 14.3792 154.787 13.9498C154.787 13.5052 154.794 12.9992 154.81 12.4318C154.825 11.9411 154.848 11.4428 154.879 10.9368C154.909 10.4154 154.963 9.90943 155.04 9.41875C155.116 8.91274 155.247 8.42206 155.431 7.94672C155.63 7.47138 155.952 7.08037 156.397 6.7737C156.703 6.51303 157.048 6.32136 157.432 6.19869C157.815 6.07602 158.214 5.98401 158.628 5.92268C159.471 5.81534 160.276 5.84601 161.043 6.01468C161.809 6.16802 162.469 6.45169 163.021 6.8657C163.573 7.27971 163.987 7.83172 164.263 8.52173C164.539 9.19641 164.623 10.0014 164.516 10.9368L164.493 11.0748C164.462 11.1208 164.393 11.1438 164.286 11.1438C164.178 11.1438 164.002 11.1515 163.757 11.1668C163.527 11.1668 163.327 11.1745 163.159 11.1898C163.005 11.1898 162.844 11.1898 162.676 11.1898C162.522 11.1898 162.361 11.1821 162.193 11.1668C162.024 11.1515 161.825 11.1285 161.595 11.0978C161.549 10.9444 161.48 10.7604 161.388 10.5458C161.311 10.3158 161.204 10.1088 161.066 9.92476C160.943 9.72542 160.797 9.55675 160.629 9.41875C160.46 9.26541 160.261 9.18875 160.031 9.18875C159.77 9.17341 159.517 9.16574 159.272 9.16574C159.026 9.16574 158.812 9.25775 158.628 9.44175C158.597 9.47242 158.551 9.55675 158.49 9.69476C158.444 9.81742 158.405 9.94009 158.375 10.0628C158.267 10.4308 158.175 10.8754 158.099 11.3968C158.037 11.9181 157.991 12.4778 157.961 13.0758C157.93 13.6585 157.922 14.2642 157.938 14.8929C157.953 15.5215 157.984 16.1195 158.03 16.6869C158.06 17.0242 158.122 17.3922 158.214 17.7909C158.306 18.1896 158.497 18.5039 158.789 18.7339C158.927 18.8259 159.103 18.8949 159.318 18.9409C159.548 18.9716 159.785 18.9639 160.031 18.9179C160.291 18.8719 160.529 18.8106 160.744 18.7339C160.912 18.6573 161.058 18.5576 161.181 18.4349C161.303 18.2969 161.395 18.1206 161.457 17.9059C161.472 17.8446 161.487 17.7449 161.503 17.6069C161.533 17.4536 161.549 17.3002 161.549 17.1469C161.564 16.9936 161.564 16.8556 161.549 16.7329C161.549 16.6102 161.526 16.5412 161.48 16.5259C161.388 16.5106 161.257 16.5106 161.089 16.5259C160.935 16.5259 160.767 16.5336 160.583 16.5489C160.414 16.5489 160.253 16.5489 160.1 16.5489C159.962 16.5336 159.854 16.5106 159.778 16.4799C159.747 16.2346 159.724 16.0199 159.709 15.8359C159.709 15.6519 159.709 15.4755 159.709 15.3069C159.724 15.1229 159.732 14.9389 159.732 14.7549C159.732 14.5709 159.716 14.3408 159.686 14.0648V14.0418C159.686 14.0265 159.693 14.0188 159.709 14.0188ZM174.623 5.73868C174.915 5.73868 175.175 5.74634 175.405 5.76168L176.026 21.862C175.766 21.908 175.482 21.9387 175.175 21.954C174.884 21.9693 174.593 21.977 174.301 21.977C174.025 21.977 173.749 21.977 173.473 21.977C173.213 21.977 172.99 21.9847 172.806 22H172.783C172.707 21.494 172.653 20.9726 172.622 20.436C172.607 19.884 172.592 19.3396 172.576 18.8029C172.576 18.2663 172.569 17.7296 172.553 17.1929C172.538 16.6562 172.5 16.1426 172.438 15.6519L172.415 15.6289C171.971 15.5522 171.526 15.5139 171.081 15.5139C170.636 15.5139 170.192 15.5675 169.747 15.6749C169.701 16.2116 169.678 16.7406 169.678 17.2619C169.693 17.7832 169.709 18.3046 169.724 18.8259C169.739 19.3473 169.739 19.861 169.724 20.367C169.724 20.8576 169.686 21.3483 169.609 21.839C169.425 21.9463 169.18 22 168.873 22C168.566 22 168.26 21.9847 167.953 21.954C167.646 21.9233 167.355 21.9003 167.079 21.885C166.818 21.8697 166.619 21.9003 166.481 21.977C166.45 21.5477 166.412 20.965 166.366 20.229C166.335 19.4776 166.305 18.6419 166.274 17.7219C166.243 16.7866 166.213 15.7975 166.182 14.7549C166.167 13.7122 166.151 12.6695 166.136 11.6268C166.121 10.5688 166.113 9.55675 166.113 8.59073C166.128 7.60938 166.144 6.7277 166.159 5.94568V5.92268H166.182H166.228C166.458 5.96868 166.696 5.98402 166.941 5.96868C167.202 5.95335 167.455 5.93801 167.7 5.92268C167.961 5.90735 168.214 5.89968 168.459 5.89968C168.704 5.89968 168.934 5.93035 169.149 5.99168C169.287 7.0497 169.356 8.07706 169.356 9.07374C169.356 10.0704 169.448 11.0594 169.632 12.0408H169.655C170.038 12.1328 170.452 12.1635 170.897 12.1328C171.342 12.0868 171.756 12.0485 172.139 12.0178H172.162C172.254 10.9598 172.3 9.97076 172.3 9.05074C172.316 8.13072 172.3 7.1187 172.254 6.01468C172.438 5.95335 172.661 5.89968 172.921 5.85368C173.197 5.80768 173.481 5.77701 173.772 5.76168C174.064 5.73101 174.347 5.72334 174.623 5.73868ZM181.777 5.78468C183.448 5.76934 185.074 5.84601 186.653 6.01468C186.684 6.52069 186.691 7.10337 186.676 7.76272C186.676 8.42206 186.638 9.02774 186.561 9.57975C186.27 9.51842 185.909 9.49542 185.48 9.51075C185.051 9.52608 184.476 9.54909 183.755 9.57975H183.709H183.686C183.686 9.59509 183.678 9.61042 183.663 9.62575C183.663 9.62575 183.663 9.63342 183.663 9.64876C183.648 9.72542 183.632 9.84809 183.617 10.0168C183.617 10.1701 183.617 10.4231 183.617 10.7758C183.617 11.1131 183.617 11.5655 183.617 12.1328C183.632 12.6848 183.648 13.4055 183.663 14.2948C183.678 15.1689 183.694 16.2269 183.709 17.4689C183.724 18.6956 183.747 20.1446 183.778 21.816V21.839V21.862C183.502 21.908 183.195 21.9387 182.858 21.954C182.536 21.954 182.206 21.954 181.869 21.954C181.547 21.954 181.225 21.954 180.903 21.954C180.581 21.954 180.282 21.977 180.006 22.023C179.991 21.9617 179.991 21.6857 180.006 21.195C180.021 20.7043 180.029 19.976 180.029 19.0099C180.044 18.0286 180.037 16.7789 180.006 15.2609C179.991 13.7428 179.937 11.9105 179.845 9.76376L179.822 9.74076C179.638 9.64875 179.408 9.59509 179.132 9.57975C178.856 9.54909 178.58 9.53375 178.304 9.53375C178.028 9.51842 177.775 9.51075 177.545 9.51075C177.315 9.51075 177.154 9.49542 177.062 9.46475C177.031 9.40342 177 9.25008 176.97 9.00474C176.954 8.7594 176.939 8.46806 176.924 8.13072C176.924 7.77805 176.924 7.40238 176.924 7.0037C176.924 6.60503 176.939 6.22169 176.97 5.85368C176.97 5.83835 176.962 5.83068 176.947 5.83068C176.947 5.83068 176.947 5.82301 176.947 5.80768C178.511 5.79234 180.121 5.78468 181.777 5.78468ZM197.287 8.24573C197.686 8.99707 197.778 9.94776 197.563 11.0978H197.54C197.004 11.1898 196.429 11.2511 195.815 11.2818C195.202 11.2971 194.627 11.2281 194.09 11.0748C194.182 10.6608 194.098 10.3158 193.837 10.0398C193.577 9.76376 193.262 9.58742 192.894 9.51075C192.526 9.43408 192.166 9.47242 191.813 9.62575C191.476 9.77909 191.277 10.0704 191.215 10.4998C191.185 10.6071 191.169 10.7144 191.169 10.8218C191.185 10.9138 191.2 11.0134 191.215 11.1208C191.338 11.4888 191.537 11.7341 191.813 11.8568C192.089 11.9795 192.388 12.0638 192.71 12.1098C193.523 12.2018 194.274 12.4625 194.964 12.8918C195.67 13.3212 196.245 13.8655 196.689 14.5249C196.965 14.8775 197.172 15.2609 197.31 15.6749C197.448 16.0735 197.525 16.4876 197.54 16.9169C197.571 17.3462 197.54 17.7832 197.448 18.2279C197.372 18.6573 197.241 19.0713 197.057 19.4699C196.873 19.9453 196.628 20.3516 196.321 20.689C196.015 21.0263 195.662 21.3023 195.263 21.517C194.88 21.7317 194.458 21.8927 193.998 22C193.554 22.092 193.094 22.1303 192.618 22.115C191.944 22.0997 191.269 21.9847 190.594 21.77C189.935 21.54 189.345 21.2257 188.823 20.827C188.302 20.4283 187.888 19.9453 187.581 19.3779C187.275 18.7953 187.144 18.1359 187.19 17.3999V17.3309V17.2619C187.727 17.1852 188.317 17.1699 188.961 17.2159C189.605 17.2466 190.188 17.2542 190.709 17.2389C190.74 17.7296 190.932 18.0976 191.284 18.3429C191.652 18.5883 192.036 18.7109 192.434 18.7109C192.848 18.6956 193.201 18.5576 193.492 18.2969C193.799 18.0363 193.906 17.6376 193.814 17.1009C193.768 16.7329 193.63 16.4416 193.4 16.2269C193.17 15.9969 192.894 15.8129 192.572 15.6749C192.266 15.5369 191.928 15.4372 191.56 15.3759C191.192 15.2992 190.847 15.2302 190.525 15.1689C190.219 15.1075 189.935 15.0079 189.674 14.8699C189.414 14.7319 189.176 14.5709 188.961 14.3868C188.256 13.7122 187.796 12.9685 187.581 12.1558C187.382 11.3431 187.374 10.5534 187.558 9.78676C187.742 9.02008 188.087 8.32239 188.593 7.69372C189.115 7.06504 189.743 6.59736 190.479 6.29069C190.847 6.13735 191.254 6.03768 191.698 5.99168C192.143 5.93035 192.588 5.91501 193.032 5.94568C193.492 5.96101 193.937 6.02235 194.366 6.12968C194.811 6.23702 195.217 6.37502 195.585 6.54369C196.321 6.92703 196.889 7.49438 197.287 8.24573Z" fill="white"/>
<path fill-rule="evenodd" clip-rule="evenodd" d="M4.5061 0.0194738L4.45227 0L4.39635 0.0130766L4.37771 0.0174354L0.865485 0.83868L0.675145 0.883186L0.104124 1.0167L0.652676 1.21826L0.745254 1.25228L0 1.06655L5.35873 13.1507L1.41666 21.8169L5.35873 22.7602L5.55843 22.3219L8.37703 20.7886L9.51198 23.7035L13.6384 24.8365L13.6567 24.8817L13.7252 24.8603L14.2338 25L14.1281 24.7348L17.2681 23.7565L17.331 23.7369L17.5196 23.6781L17.4447 23.5032L17.4197 23.4449L12.9607 13.0362L17.4175 3.27184L17.4391 3.22443L17.6471 3.15948L17.4853 3.12338L17.5352 3.01402L17.4132 2.98681L17.4139 2.98537L17.4109 2.98629L17.3196 2.96591L17.2477 2.94988L13.3041 2.06997L13.2866 2.06605L13.2339 2.0543L13.1829 2.07144L13.1659 2.07716L10.0233 3.13304L9.85872 3.18836L9.36482 3.35431L9.85872 3.52025L10.0233 3.57557L10.1699 3.62481L9.2304 3.41794L8.95065 4.15767L7.79663 1.39339L7.88129 1.36599L7.76809 1.32504L7.74645 1.27319L7.73643 1.24919L7.70638 1.1772L7.63031 1.14969L7.60496 1.14051L4.52405 0.0259652L4.5061 0.0194738ZM8.69852 4.82434L7.3749 1.65381L4.82912 2.47783L7.40016 8.25748L8.69852 4.82434ZM13.9531 24.2956L9.51198 13.1507L13.7727 4.49322L16.7466 3.56425L12.4673 12.9398L12.4569 12.9624L12.4259 13.0304L12.4553 13.099L12.4651 13.1219L16.8633 23.3888L13.9531 24.2956ZM8.20336 20.3425L7.40016 18.2797L5.88585 21.6033L8.20336 20.3425ZM4.42072 0.490609L6.78963 1.34759L4.44182 2.10752L1.74443 1.11639L4.42072 0.490609ZM13.2619 2.54254L16.2803 3.21601L13.2508 4.16234L10.8459 3.35431L13.2619 2.54254Z" fill="white"/>
</svg>
